<svg xmlns="http://www.w3.org/2000/svg" xmlns:xlink="http://www.w3.org/1999/xlink" width="500" zoomAndPan="magnify" viewBox="0 0 375 374.999991" height="500" preserveAspectRatio="xMidYMid meet" version="1.0"><defs><clipPath id="d35b1c9656"><path d="M 47.804688 8.871094 L 327.554688 8.871094 L 327.554688 246.621094 L 47.804688 246.621094 Z M 47.804688 8.871094 " clip-rule="nonzero"/></clipPath><clipPath id="fab9974907"><path d="M 47.804688 243.75 L 327.554688 243.75 L 327.554688 366 L 47.804688 366 Z M 47.804688 243.75 " clip-rule="nonzero"/></clipPath><clipPath id="5bcc10ddb3"><path d="M 47.804688 128.648438 L 96.554688 128.648438 L 96.554688 366.398438 L 47.804688 366.398438 Z M 47.804688 128.648438 " clip-rule="nonzero"/></clipPath><clipPath id="3dc1523907"><path d="M 262.710938 128.648438 L 327.210938 128.648438 L 327.210938 366.398438 L 262.710938 366.398438 Z M 262.710938 128.648438 " clip-rule="nonzero"/></clipPath><clipPath id="8281546be3"><path d="M 47.804688 214.121094 L 152.054688 214.121094 L 152.054688 265.121094 L 47.804688 265.121094 Z M 47.804688 214.121094 " clip-rule="nonzero"/></clipPath><clipPath id="78667daaa9"><path d="M 234.367188 217.140625 L 327.367188 217.140625 L 327.367188 366.390625 L 234.367188 366.390625 Z M 234.367188 217.140625 " clip-rule="nonzero"/></clipPath></defs><g clip-path="url(#d35b1c9656)"><path fill="#3a4768" d="M 126.699219 91.167969 L 152.507812 75.585938 L 179.011719 60.6875 L 216.386719 39.015625 L 216.386719 8.871094 L 179.011719 30.542969 L 152.507812 45.441406 L 126.699219 60.6875 L 100.195312 75.585938 Z M 75.382812 181.925781 L 135.195312 216.128906 L 161.351562 231.027344 L 187.507812 246.609375 L 213.671875 231.027344 L 239.828125 216.128906 L 327.488281 166.007812 L 327.488281 136.210938 L 239.828125 185.984375 L 213.671875 201.230469 L 187.507812 216.128906 L 161.351562 201.230469 L 135.195312 185.984375 L 75.382812 151.78125 L 75.382812 121.984375 L 135.195312 156.191406 L 161.351562 171.085938 L 187.507812 185.984375 L 213.671875 171.085938 L 239.828125 156.191406 L 327.488281 105.730469 L 327.488281 75.585938 L 239.828125 126.046875 L 213.671875 140.945312 L 187.507812 156.191406 L 161.351562 140.945312 L 135.195312 126.046875 L 47.867188 75.585938 L 47.867188 166.007812 Z M 181.054688 122.320312 L 207.21875 107.425781 L 233.375 92.179688 L 259.53125 77.28125 L 259.53125 47.136719 L 233.375 62.382812 L 207.21875 77.28125 L 181.054688 92.179688 L 154.898438 107.425781 Z M 181.054688 122.320312 " fill-opacity="1" fill-rule="evenodd"/></g><g clip-path="url(#fab9974907)"><path fill="#3a4768" d="M 126.699219 210.945312 L 152.507812 195.363281 L 179.011719 180.464844 L 216.386719 158.789062 L 216.386719 128.648438 L 179.011719 150.320312 L 152.507812 165.21875 L 126.699219 180.464844 L 100.195312 195.363281 Z M 75.382812 301.703125 L 135.195312 335.90625 L 161.351562 350.804688 L 187.507812 366.386719 L 213.671875 350.804688 L 239.828125 335.90625 L 327.488281 285.785156 L 327.488281 255.988281 L 239.828125 305.761719 L 213.671875 321.007812 L 187.507812 335.90625 L 161.351562 321.007812 L 135.195312 305.761719 L 75.382812 271.558594 L 75.382812 241.761719 L 135.195312 275.964844 L 187.507812 305.761719 L 213.671875 290.863281 L 239.828125 275.964844 L 327.488281 225.507812 L 327.488281 195.363281 L 239.828125 245.824219 L 213.671875 260.722656 L 187.507812 275.96875 L 161.351562 260.722656 L 135.195312 245.824219 L 47.867188 195.363281 L 47.867188 285.785156 Z M 181.054688 242.097656 L 207.21875 227.199219 L 233.375 211.953125 L 259.53125 197.054688 L 259.53125 166.914062 L 233.375 182.160156 L 207.21875 197.054688 L 181.054688 211.953125 L 154.898438 227.199219 Z M 181.054688 242.097656 " fill-opacity="1" fill-rule="evenodd"/></g><g clip-path="url(#5bcc10ddb3)"><path fill="#3a4768" d="M 126.699219 210.945312 L 152.507812 195.363281 L 179.011719 180.464844 L 216.386719 158.789062 L 216.386719 128.648438 L 179.011719 150.320312 L 152.507812 165.21875 L 126.699219 180.464844 L 100.195312 195.363281 Z M 75.382812 301.703125 L 135.195312 335.90625 L 161.351562 350.804688 L 187.507812 366.386719 L 213.671875 350.804688 L 239.828125 335.90625 L 327.488281 285.785156 L 327.488281 255.988281 L 239.828125 305.761719 L 213.671875 321.007812 L 187.507812 335.90625 L 161.351562 321.007812 L 135.195312 305.761719 L 75.382812 271.558594 L 75.382812 241.761719 L 135.195312 275.964844 L 187.507812 305.761719 L 213.671875 290.863281 L 239.828125 275.964844 L 327.488281 225.507812 L 327.488281 195.363281 L 239.828125 245.824219 L 213.671875 260.722656 L 187.507812 275.96875 L 161.351562 260.722656 L 135.195312 245.824219 L 47.867188 195.363281 L 47.867188 285.785156 Z M 181.054688 242.097656 L 207.21875 227.199219 L 233.375 211.953125 L 259.53125 197.054688 L 259.53125 166.914062 L 233.375 182.160156 L 207.21875 197.054688 L 181.054688 211.953125 L 154.898438 227.199219 Z M 181.054688 242.097656 " fill-opacity="1" fill-rule="evenodd"/></g><g clip-path="url(#3dc1523907)"><path fill="#3a4768" d="M 126.699219 210.945312 L 152.507812 195.363281 L 179.011719 180.464844 L 216.386719 158.789062 L 216.386719 128.648438 L 179.011719 150.320312 L 152.507812 165.21875 L 126.699219 180.464844 L 100.195312 195.363281 Z M 75.382812 301.703125 L 135.195312 335.90625 L 161.351562 350.804688 L 187.507812 366.386719 L 213.671875 350.804688 L 239.828125 335.90625 L 327.488281 285.785156 L 327.488281 255.988281 L 239.828125 305.761719 L 213.671875 321.007812 L 187.507812 335.90625 L 161.351562 321.007812 L 135.195312 305.761719 L 75.382812 271.558594 L 75.382812 241.761719 L 135.195312 275.964844 L 187.507812 305.761719 L 213.671875 290.863281 L 239.828125 275.964844 L 327.488281 225.507812 L 327.488281 195.363281 L 239.828125 245.824219 L 213.671875 260.722656 L 187.507812 275.96875 L 161.351562 260.722656 L 135.195312 245.824219 L 47.867188 195.363281 L 47.867188 285.785156 Z M 181.054688 242.097656 L 207.21875 227.199219 L 233.375 211.953125 L 259.53125 197.054688 L 259.53125 166.914062 L 233.375 182.160156 L 207.21875 197.054688 L 181.054688 211.953125 L 154.898438 227.199219 Z M 181.054688 242.097656 " fill-opacity="1" fill-rule="evenodd"/></g><g clip-path="url(#8281546be3)"><path fill="#3a4768" d="M 126.699219 210.984375 L 152.507812 195.402344 L 179.011719 180.503906 L 216.386719 158.832031 L 216.386719 128.6875 L 179.011719 150.359375 L 152.507812 165.257812 L 126.699219 180.503906 L 100.195312 195.402344 Z M 75.382812 301.742188 L 135.195312 335.945312 L 161.351562 350.84375 L 187.507812 366.425781 L 213.671875 350.84375 L 239.828125 335.945312 L 327.488281 285.824219 L 327.488281 256.027344 L 239.828125 305.800781 L 213.671875 321.046875 L 187.507812 335.945312 L 161.351562 321.046875 L 135.195312 305.800781 L 75.382812 271.597656 L 75.382812 241.800781 L 135.195312 276.007812 L 161.351562 290.902344 L 187.507812 305.800781 L 213.671875 290.902344 L 239.828125 276.007812 L 327.488281 225.546875 L 327.488281 195.402344 L 239.828125 245.863281 L 213.671875 260.761719 L 187.507812 276.007812 L 161.351562 260.761719 L 135.195312 245.863281 L 47.867188 195.402344 L 47.867188 285.824219 Z M 181.054688 242.136719 L 207.21875 227.242188 L 233.375 211.992188 L 259.53125 197.097656 L 259.53125 166.953125 L 233.375 182.199219 L 207.21875 197.097656 L 181.054688 211.992188 L 154.898438 227.242188 Z M 181.054688 242.136719 " fill-opacity="1" fill-rule="evenodd"/></g><g clip-path="url(#78667daaa9)"><path fill="#3a4768" d="M 126.699219 210.945312 L 152.507812 195.363281 L 179.011719 180.464844 L 216.386719 158.789062 L 216.386719 128.648438 L 179.011719 150.320312 L 152.507812 165.21875 L 126.699219 180.464844 L 100.195312 195.363281 Z M 75.382812 301.703125 L 135.195312 335.90625 L 161.351562 350.804688 L 187.507812 366.386719 L 213.671875 350.804688 L 239.828125 335.90625 L 327.488281 285.785156 L 327.488281 255.988281 L 239.828125 305.761719 L 213.671875 321.007812 L 187.507812 335.90625 L 161.351562 321.007812 L 135.195312 305.761719 L 75.382812 271.558594 L 75.382812 241.761719 L 135.195312 275.964844 L 187.507812 305.761719 L 213.671875 290.863281 L 239.828125 275.964844 L 327.488281 225.507812 L 327.488281 195.363281 L 239.828125 245.824219 L 213.671875 260.722656 L 187.507812 275.96875 L 161.351562 260.722656 L 135.195312 245.824219 L 47.867188 195.363281 L 47.867188 285.785156 Z M 181.054688 242.097656 L 207.21875 227.199219 L 233.375 211.953125 L 259.53125 197.054688 L 259.53125 166.914062 L 233.375 182.160156 L 207.21875 197.054688 L 181.054688 211.953125 L 154.898438 227.199219 Z M 181.054688 242.097656 " fill-opacity="1" fill-rule="evenodd"/></g></svg>