<svg xmlns="http://www.w3.org/2000/svg" xmlns:xlink="http://www.w3.org/1999/xlink" width="101" zoomAndPan="magnify" viewBox="0 0 75.75 75.749998" height="101" preserveAspectRatio="xMidYMid meet" version="1.0"><defs><clipPath id="84802c3e16"><path d="M 1 0.449219 L 75.5 0.449219 L 75.5 75 L 1 75 Z M 1 0.449219 " clip-rule="nonzero"/></clipPath></defs><g clip-path="url(#84802c3e16)"><path fill="#ffffff" d="M 21.996094 71.066406 L 29.074219 71.066406 C 30.171875 71.066406 31.070312 70.164062 31.070312 69.066406 L 31.070312 67.519531 L 45.675781 67.519531 L 45.675781 69.066406 C 45.675781 70.164062 46.570312 71.066406 47.679688 71.066406 L 54.757812 71.066406 C 56.859375 71.066406 58.671875 71.773438 60.199219 73.199219 C 60.511719 73.492188 60.601562 73.914062 60.445312 74.296875 C 60.292969 74.691406 59.925781 74.9375 59.511719 74.9375 L 17.230469 74.9375 C 16.820312 74.9375 16.460938 74.691406 16.304688 74.296875 C 16.152344 73.914062 16.25 73.492188 16.554688 73.199219 C 18.070312 71.773438 19.902344 71.066406 21.996094 71.066406 Z M 73.003906 10.382812 L 62.578125 10.382812 C 62.277344 10.382812 62.027344 10.628906 62.027344 10.929688 L 60.941406 13.765625 C 60.941406 14.066406 61.1875 14.316406 61.488281 14.316406 L 70.855469 14.316406 C 71.421875 14.316406 71.886719 14.78125 71.886719 15.367188 L 71.886719 51.210938 C 71.886719 51.789062 71.414062 52.261719 70.835938 52.261719 L 5.90625 52.261719 C 5.332031 52.261719 4.855469 51.789062 4.855469 51.210938 L 4.855469 16.179688 C 4.855469 15.15625 5.695312 14.316406 6.722656 14.316406 L 37.761719 14.324219 C 38.054688 14.324219 38.304688 14.085938 38.3125 13.792969 L 39.539062 10.949219 C 39.546875 10.636719 39.300781 10.382812 38.988281 10.382812 L 3.75 10.382812 C 2.320312 10.382812 1.132812 11.570312 1.132812 13.015625 L 1.132812 61.628906 C 1.132812 63.074219 2.320312 64.261719 3.75 64.261719 L 73.003906 64.261719 C 74.429688 64.261719 75.621094 63.074219 75.621094 61.628906 L 75.621094 13.015625 C 75.621094 11.570312 74.429688 10.382812 73.003906 10.382812 Z M 38.183594 31.089844 L 37.078125 30.347656 C 36.914062 30.238281 36.859375 30.039062 36.929688 29.855469 L 43.261719 15.511719 L 54.601562 1.703125 C 55.371094 0.621094 57.191406 0 58.453125 0.84375 C 59.707031 1.683594 59.824219 3.605469 59.121094 4.730469 L 50.652344 20.46875 L 39.804688 31.773438 C 39.667969 31.921875 39.457031 31.941406 39.300781 31.832031 Z M 24.902344 37.109375 C 25.535156 37.136719 26.570312 37.089844 27 36.96875 C 29.695312 36.265625 29.121094 32.898438 34.316406 31.832031 C 34.761719 31.730469 35.183594 31.71875 35.578125 31.96875 L 37.964844 33.484375 C 38.441406 33.789062 38.933594 34.308594 38.777344 34.847656 C 34.964844 47.972656 22.023438 39.246094 23.175781 36.996094 C 23.347656 36.660156 23.972656 37.082031 24.902344 37.109375 Z M 38.375 61.117188 C 37.460938 61.117188 36.710938 60.375 36.710938 59.460938 C 36.710938 58.546875 37.460938 57.796875 38.375 57.796875 C 39.300781 57.796875 40.042969 58.546875 40.042969 59.460938 C 40.042969 60.375 39.300781 61.117188 38.375 61.117188 Z M 38.375 61.117188 " fill-opacity="1" fill-rule="evenodd"/><path fill="#ffffff" d="M 21.996094 71.066406 L 29.074219 71.066406 C 30.171875 71.066406 31.070312 70.164062 31.070312 69.066406 L 31.070312 67.519531 L 45.675781 67.519531 L 45.675781 69.066406 C 45.675781 70.164062 46.570312 71.066406 47.679688 71.066406 L 54.757812 71.066406 C 56.859375 71.066406 58.671875 71.773438 60.199219 73.199219 C 60.511719 73.492188 60.601562 73.914062 60.445312 74.296875 C 60.292969 74.691406 59.925781 74.9375 59.511719 74.9375 L 17.230469 74.9375 C 16.820312 74.9375 16.460938 74.691406 16.304688 74.296875 C 16.152344 73.914062 16.25 73.492188 16.554688 73.199219 C 18.070312 71.773438 19.902344 71.066406 21.996094 71.066406 Z M 73.003906 10.382812 L 62.578125 10.382812 C 62.277344 10.382812 62.027344 10.628906 62.027344 10.929688 L 60.941406 13.765625 C 60.941406 14.066406 61.1875 14.316406 61.488281 14.316406 L 70.855469 14.316406 C 71.421875 14.316406 71.886719 14.78125 71.886719 15.367188 L 71.886719 51.210938 C 71.886719 51.789062 71.414062 52.261719 70.835938 52.261719 L 5.90625 52.261719 C 5.332031 52.261719 4.855469 51.789062 4.855469 51.210938 L 4.855469 16.179688 C 4.855469 15.15625 5.695312 14.316406 6.722656 14.316406 L 37.761719 14.324219 C 38.054688 14.324219 38.304688 14.085938 38.3125 13.792969 L 39.539062 10.949219 C 39.546875 10.636719 39.300781 10.382812 38.988281 10.382812 L 3.75 10.382812 C 2.320312 10.382812 1.132812 11.570312 1.132812 13.015625 L 1.132812 61.628906 C 1.132812 63.074219 2.320312 64.261719 3.75 64.261719 L 73.003906 64.261719 C 74.429688 64.261719 75.621094 63.074219 75.621094 61.628906 L 75.621094 13.015625 C 75.621094 11.570312 74.429688 10.382812 73.003906 10.382812 Z M 38.183594 31.089844 L 37.078125 30.347656 C 36.914062 30.238281 36.859375 30.039062 36.929688 29.855469 L 43.261719 15.511719 L 54.601562 1.703125 C 55.371094 0.621094 57.191406 0 58.453125 0.84375 C 59.707031 1.683594 59.824219 3.605469 59.121094 4.730469 L 50.652344 20.46875 L 39.804688 31.773438 C 39.667969 31.921875 39.457031 31.941406 39.300781 31.832031 Z M 24.902344 37.109375 C 25.535156 37.136719 26.570312 37.089844 27 36.96875 C 29.695312 36.265625 29.121094 32.898438 34.316406 31.832031 C 34.761719 31.730469 35.183594 31.71875 35.578125 31.96875 L 37.964844 33.484375 C 38.441406 33.789062 38.933594 34.308594 38.777344 34.847656 C 34.964844 47.972656 22.023438 39.246094 23.175781 36.996094 C 23.347656 36.660156 23.972656 37.082031 24.902344 37.109375 Z M 38.375 61.117188 C 37.460938 61.117188 36.710938 60.375 36.710938 59.460938 C 36.710938 58.546875 37.460938 57.796875 38.375 57.796875 C 39.300781 57.796875 40.042969 58.546875 40.042969 59.460938 C 40.042969 60.375 39.300781 61.117188 38.375 61.117188 Z M 38.375 61.117188 " fill-opacity="1" fill-rule="evenodd"/></g></svg>