<svg xmlns="http://www.w3.org/2000/svg" xmlns:xlink="http://www.w3.org/1999/xlink" width="350" zoomAndPan="magnify" viewBox="0 0 262.5 135.749996" height="181" preserveAspectRatio="xMidYMid meet" version="1.0"><defs><clipPath id="462b7f25f5"><path d="M 130 10 L 262 10 L 262 87 L 130 87 Z M 130 10 " clip-rule="nonzero"/></clipPath><clipPath id="ca7f7a6806"><path d="M 0 8 L 262 8 L 262 134.832031 L 0 134.832031 Z M 0 8 " clip-rule="nonzero"/></clipPath><clipPath id="ab85ed5cde"><path d="M 0 49 L 262 49 L 262 134.832031 L 0 134.832031 Z M 0 49 " clip-rule="nonzero"/></clipPath><clipPath id="b011d9a4fe"><path d="M 54 76 L 262 76 L 262 134.832031 L 54 134.832031 Z M 54 76 " clip-rule="nonzero"/></clipPath><clipPath id="a9455bf974"><path d="M 130 10 L 262 10 L 262 87 L 130 87 Z M 130 10 " clip-rule="nonzero"/></clipPath><clipPath id="ddbf02387f"><path d="M 0 8 L 262 8 L 262 134.832031 L 0 134.832031 Z M 0 8 " clip-rule="nonzero"/></clipPath><clipPath id="d0b4ba68f2"><path d="M 0 49 L 262 49 L 262 134.832031 L 0 134.832031 Z M 0 49 " clip-rule="nonzero"/></clipPath><clipPath id="6aca1de5e1"><path d="M 54 76 L 262 76 L 262 134.832031 L 54 134.832031 Z M 54 76 " clip-rule="nonzero"/></clipPath><clipPath id="94bee5dfcc"><path d="M 0 102.140625 L 91.5 102.140625 L 91.5 135.058594 L 0 135.058594 Z M 0 102.140625 " clip-rule="nonzero"/></clipPath></defs><path fill="#9ebae1" d="M 115.589844 43.023438 C 109.097656 37.136719 97.542969 36.480469 89.207031 35.707031 C 82.300781 35.054688 82.714844 34.695312 78.488281 29.640625 C 72.472656 22.503906 63.839844 18.222656 54.609375 18.460938 C 51.867188 18.519531 49.425781 18.164062 46.808594 17.746094 C 44.367188 17.390625 42.460938 18.460938 40.019531 18.398438 C 37.992188 18.398438 37.398438 17.804688 35.550781 16.675781 C 30.726562 13.703125 25.25 16.972656 20.664062 13.523438 C 17.390625 11.085938 15.066406 8.109375 11.375 6.386719 C 10.957031 6.148438 0.0585938 0.617188 0.0585938 2.101562 C 0.0585938 2.101562 0.0585938 70.859375 0.0585938 70.859375 C 0.0585938 70.859375 9.648438 70.800781 13.875 70.800781 C 28.167969 70.742188 42.398438 69.789062 56.691406 69.789062 C 69.199219 69.789062 81.703125 71.574219 94.148438 71.335938 C 105.105469 71.15625 111.835938 68.777344 114.039062 57.597656 C 115.050781 52.125 116.777344 42.726562 115.589844 43.023438 Z M 115.589844 43.023438 " fill-opacity="1" fill-rule="nonzero"/><g clip-path="url(#462b7f25f5)"><path fill="#9ebae1" d="M 262.441406 10.3125 C 262.441406 10.429688 261.191406 11.144531 261.011719 11.203125 C 260.535156 11.441406 260.414062 11.261719 259.878906 11.144531 C 259.582031 11.085938 259.226562 11.144531 258.867188 11.144531 C 257.914062 11.144531 257.140625 11.320312 256.425781 11.859375 C 255.949219 12.214844 255.652344 12.570312 255.472656 13.164062 C 255.292969 13.640625 255.59375 13.582031 254.996094 13.640625 C 254.578125 13.703125 254.164062 13.582031 253.804688 13.703125 C 253.390625 13.820312 253.152344 13.878906 252.734375 13.878906 C 251.839844 13.878906 250.945312 13.761719 250.054688 13.878906 C 249.519531 13.9375 249.398438 14.175781 249.042969 14.535156 C 248.625 14.890625 248.265625 15.128906 247.851562 15.546875 C 246.777344 16.855469 244.695312 16.972656 243.085938 17.390625 C 241.359375 17.804688 239.691406 18.339844 238.144531 19.292969 C 236.296875 20.421875 234.570312 22.207031 233.082031 23.871094 C 232.605469 24.40625 232.070312 25.003906 231.59375 25.539062 C 231.058594 26.074219 230.820312 26.847656 230.34375 27.382812 C 229.507812 28.332031 228.078125 28.332031 226.886719 28.570312 C 225.578125 28.808594 224.148438 28.332031 222.898438 29.046875 C 222.242188 29.464844 221.707031 30.058594 220.992188 30.414062 C 220.339844 30.773438 219.683594 31.128906 219.085938 31.542969 C 218.132812 32.140625 216.824219 32.199219 215.992188 32.914062 C 215.097656 33.566406 213.964844 33.6875 213.191406 34.398438 C 212.121094 35.351562 211.347656 36.660156 210.214844 37.492188 C 209.855469 37.730469 209.5 37.847656 209.082031 38.085938 C 207.773438 38.742188 206.582031 39.8125 205.332031 40.703125 C 204.558594 41.238281 203.960938 41.359375 203.066406 41.535156 C 201.101562 42.011719 199.136719 42.074219 197.171875 42.191406 C 195.683594 42.25 194.730469 42.84375 193.480469 43.441406 C 193.003906 43.679688 192.527344 43.855469 191.992188 43.855469 C 191.097656 43.796875 190.382812 43.082031 189.730469 42.546875 C 188.835938 41.835938 187.941406 41.238281 186.8125 41 C 185.917969 40.824219 184.964844 40.941406 184.070312 40.824219 C 182.640625 40.644531 181.332031 39.992188 179.902344 39.929688 C 179.484375 39.929688 179.070312 39.929688 178.652344 39.929688 C 177.34375 39.8125 175.972656 39.574219 174.664062 39.277344 C 173.886719 39.097656 173.171875 38.800781 172.398438 38.5625 C 171.625 38.324219 170.671875 38.085938 170.015625 37.492188 C 169.71875 37.195312 169.660156 36.839844 169.421875 36.480469 C 169.183594 36.183594 168.828125 35.945312 168.527344 35.707031 C 166.683594 34.28125 165.015625 32.554688 162.992188 31.425781 C 159.238281 29.285156 155.605469 29.285156 151.796875 31.484375 C 149.890625 32.617188 148.878906 34.757812 147.210938 35.945312 C 144.171875 38.085938 140.597656 39.097656 137.980469 42.726562 C 136.371094 44.988281 135.238281 47.542969 133.691406 49.863281 C 132.976562 50.933594 130.417969 53.789062 130.296875 54.980469 C 130.117188 56.703125 131.667969 56.941406 132.976562 58.011719 C 137.382812 61.699219 141.789062 65.507812 145.960938 69.492188 C 150.664062 74.011719 154 78.472656 160.609375 80.019531 C 165.730469 81.207031 171.269531 82.457031 176.449219 83.410156 C 183.65625 84.777344 191.21875 83.648438 198.484375 84.183594 C 211.226562 85.195312 223.96875 86.382812 236.773438 86.382812 C 243.503906 86.382812 262.441406 84.957031 262.441406 84.957031 C 262.441406 84.957031 262.441406 10.3125 262.441406 10.3125 Z M 262.441406 10.3125 " fill-opacity="1" fill-rule="nonzero"/></g><g clip-path="url(#ca7f7a6806)"><path fill="#4a6185" d="M 262.441406 89 C 262.441406 89 255.832031 88.285156 252.734375 88.285156 C 247.730469 88.226562 244.335938 83.707031 239.691406 82.339844 C 239.035156 82.160156 236.65625 82.101562 235.761719 81.921875 C 232.605469 81.328125 229.867188 80.199219 226.53125 80.671875 C 223.613281 81.089844 220.875 82.515625 217.894531 82.875 C 210.929688 83.707031 207.832031 75.855469 202.054688 72.644531 C 197.828125 70.265625 196.160156 71.8125 192.230469 71.75 C 188.894531 71.691406 186.929688 68.777344 184.964844 66.28125 C 180.378906 60.332031 173.53125 54.085938 167.457031 49.328125 C 164.417969 46.949219 160.726562 44.75 156.796875 45.164062 C 152.867188 45.582031 153.460938 46.53125 149.53125 44.808594 C 143.933594 42.308594 139.886719 36.957031 134.050781 34.996094 C 131.488281 34.101562 128.628906 33.566406 126.246094 32.199219 C 125.355469 31.664062 124.519531 31.128906 123.507812 30.890625 C 120.648438 30.058594 116.71875 30.652344 114.457031 28.332031 C 113.800781 27.679688 113.382812 27.320312 112.550781 26.964844 C 111.894531 26.667969 111.300781 26.546875 110.824219 26.074219 C 109.691406 24.941406 108.023438 24.464844 106.953125 23.21875 C 106 22.085938 105.226562 20.777344 104.273438 19.648438 C 102.664062 17.804688 101 16.019531 99.152344 14.472656 C 98.914062 14.296875 98.734375 14.117188 98.496094 13.878906 C 96.769531 12.453125 94.925781 11.203125 92.957031 10.191406 C 89.027344 8.109375 87.835938 7.457031 83.609375 9.300781 C 79.203125 11.203125 76.703125 13.285156 71.640625 13.164062 C 65.269531 12.988281 58.300781 16.855469 52.464844 20.066406 C 46.390625 23.457031 40.972656 27.917969 36.207031 32.914062 C 32.039062 37.253906 28.824219 42.191406 22.273438 43.144531 C 18.578125 43.679688 15.183594 42.429688 11.792969 44.628906 C 9.585938 46.058594 8.515625 48.257812 5.71875 48.914062 C 3.929688 49.328125 0 49.746094 0 49.746094 L 0 134.796875 L 262.382812 134.796875 L 262.382812 89 Z M 262.441406 89 " fill-opacity="1" fill-rule="nonzero"/></g><g clip-path="url(#ab85ed5cde)"><path fill="#3a4768" d="M 0 75.976562 C 0 75.976562 5.417969 75.558594 7.921875 77.164062 C 10.300781 78.652344 11.316406 81.386719 14.234375 82.28125 C 18.9375 83.707031 23.523438 80.078125 26.917969 77.34375 C 33.289062 72.289062 38.054688 64.140625 46.210938 61.878906 C 48.117188 61.34375 50.203125 61.757812 52.105469 61.222656 C 54.964844 60.511719 58.359375 57.535156 61.039062 55.8125 C 63.957031 53.96875 71.28125 48.792969 75.210938 50.101562 C 76.523438 50.519531 75.6875 50.757812 76.640625 51.589844 C 77.417969 52.242188 77.953125 55.929688 78.667969 56.941406 C 80.097656 58.90625 82.300781 60.035156 84.144531 61.582031 C 90.277344 66.753906 92.660156 73.058594 100.699219 75.378906 C 112.671875 78.828125 121.304688 87.691406 129.941406 95.898438 C 136.550781 102.203125 141.613281 102.203125 149.828125 98.992188 C 157.035156 96.199219 163.40625 92.984375 169.242188 88.167969 C 173.234375 84.898438 175.734375 85.550781 180.558594 84.777344 C 192.109375 83.054688 196.578125 74.191406 206.046875 68.597656 C 211.285156 65.566406 213.488281 64.851562 218.730469 66.875 C 223.613281 68.71875 224.269531 69.195312 228.792969 67.648438 C 234.570312 65.683594 240.644531 64.675781 246.300781 62.234375 C 247.253906 61.820312 248.207031 60.925781 249.21875 60.75 C 250.648438 60.511719 252.078125 61.285156 253.390625 61.105469 C 256.425781 60.6875 262.261719 58.191406 262.261719 58.191406 L 262.261719 134.5625 L 0 134.5625 Z M 0 75.976562 " fill-opacity="1" fill-rule="nonzero"/></g><g clip-path="url(#b011d9a4fe)"><path fill="#232d47" d="M 262.441406 102.144531 C 262.441406 102.144531 254.699219 107.023438 250.707031 108.449219 C 247.253906 109.699219 245.109375 107.5 241.121094 107.023438 C 236.476562 106.488281 230.640625 104.167969 225.996094 105.058594 C 223.671875 105.535156 222.125 107.320312 219.386719 106.84375 C 215.992188 106.308594 214.441406 103.394531 212.179688 101.3125 C 207.714844 97.207031 202.175781 94.53125 196.933594 91.617188 C 190.027344 87.8125 183.535156 83.230469 176.6875 79.363281 C 170.195312 75.738281 163.585938 74.726562 157.871094 80.734375 C 151.320312 87.632812 145.722656 99.585938 135.539062 100.957031 C 130.535156 101.667969 125.769531 103.15625 120.710938 103.511719 C 114.457031 103.988281 114.695312 108.628906 109.574219 110.949219 C 107.371094 111.960938 105.703125 111.601562 103.5 111.1875 C 98.914062 110.292969 94.625 108.152344 89.625 109.042969 C 81.167969 110.472656 79.441406 119.453125 72.472656 123.496094 C 68.425781 125.878906 63.0625 125.402344 59.253906 127.839844 C 56.929688 129.328125 54.070312 134.5 54.070312 134.5 L 262.5 134.5 L 262.5 102.144531 Z M 262.441406 102.144531 " fill-opacity="1" fill-rule="nonzero"/></g><path fill="#9ebae1" d="M 115.589844 43.023438 C 109.097656 37.136719 97.542969 36.480469 89.207031 35.707031 C 82.300781 35.054688 82.714844 34.695312 78.488281 29.640625 C 72.472656 22.503906 63.839844 18.222656 54.609375 18.460938 C 51.867188 18.519531 49.425781 18.164062 46.808594 17.746094 C 44.367188 17.390625 42.460938 18.460938 40.019531 18.398438 C 37.992188 18.398438 37.398438 17.804688 35.550781 16.675781 C 30.726562 13.703125 25.25 16.972656 20.664062 13.523438 C 17.390625 11.085938 15.066406 8.109375 11.375 6.386719 C 10.957031 6.148438 0.0585938 0.617188 0.0585938 2.101562 C 0.0585938 2.101562 0.0585938 70.859375 0.0585938 70.859375 C 0.0585938 70.859375 9.648438 70.800781 13.875 70.800781 C 28.167969 70.742188 42.398438 69.789062 56.691406 69.789062 C 69.199219 69.789062 81.703125 71.574219 94.148438 71.335938 C 105.105469 71.15625 111.835938 68.777344 114.039062 57.597656 C 115.050781 52.125 116.777344 42.726562 115.589844 43.023438 Z M 115.589844 43.023438 " fill-opacity="1" fill-rule="nonzero"/><g clip-path="url(#a9455bf974)"><path fill="#9ebae1" d="M 262.441406 10.3125 C 262.441406 10.429688 261.191406 11.144531 261.011719 11.203125 C 260.535156 11.441406 260.414062 11.261719 259.878906 11.144531 C 259.582031 11.085938 259.226562 11.144531 258.867188 11.144531 C 257.914062 11.144531 257.140625 11.320312 256.425781 11.859375 C 255.949219 12.214844 255.652344 12.570312 255.472656 13.164062 C 255.292969 13.640625 255.59375 13.582031 254.996094 13.640625 C 254.578125 13.703125 254.164062 13.582031 253.804688 13.703125 C 253.390625 13.820312 253.152344 13.878906 252.734375 13.878906 C 251.839844 13.878906 250.945312 13.761719 250.054688 13.878906 C 249.519531 13.9375 249.398438 14.175781 249.042969 14.535156 C 248.625 14.890625 248.265625 15.128906 247.851562 15.546875 C 246.777344 16.855469 244.695312 16.972656 243.085938 17.390625 C 241.359375 17.804688 239.691406 18.339844 238.144531 19.292969 C 236.296875 20.421875 234.570312 22.207031 233.082031 23.871094 C 232.605469 24.40625 232.070312 25.003906 231.59375 25.539062 C 231.058594 26.074219 230.820312 26.847656 230.34375 27.382812 C 229.507812 28.332031 228.078125 28.332031 226.886719 28.570312 C 225.578125 28.808594 224.148438 28.332031 222.898438 29.046875 C 222.242188 29.464844 221.707031 30.058594 220.992188 30.414062 C 220.339844 30.773438 219.683594 31.128906 219.085938 31.542969 C 218.132812 32.140625 216.824219 32.199219 215.992188 32.914062 C 215.097656 33.566406 213.964844 33.6875 213.191406 34.398438 C 212.121094 35.351562 211.347656 36.660156 210.214844 37.492188 C 209.855469 37.730469 209.5 37.847656 209.082031 38.085938 C 207.773438 38.742188 206.582031 39.8125 205.332031 40.703125 C 204.558594 41.238281 203.960938 41.359375 203.066406 41.535156 C 201.101562 42.011719 199.136719 42.074219 197.171875 42.191406 C 195.683594 42.25 194.730469 42.84375 193.480469 43.441406 C 193.003906 43.679688 192.527344 43.855469 191.992188 43.855469 C 191.097656 43.796875 190.382812 43.082031 189.730469 42.546875 C 188.835938 41.835938 187.941406 41.238281 186.8125 41 C 185.917969 40.824219 184.964844 40.941406 184.070312 40.824219 C 182.640625 40.644531 181.332031 39.992188 179.902344 39.929688 C 179.484375 39.929688 179.070312 39.929688 178.652344 39.929688 C 177.34375 39.8125 175.972656 39.574219 174.664062 39.277344 C 173.886719 39.097656 173.171875 38.800781 172.398438 38.5625 C 171.625 38.324219 170.671875 38.085938 170.015625 37.492188 C 169.71875 37.195312 169.660156 36.839844 169.421875 36.480469 C 169.183594 36.183594 168.828125 35.945312 168.527344 35.707031 C 166.683594 34.28125 165.015625 32.554688 162.992188 31.425781 C 159.238281 29.285156 155.605469 29.285156 151.796875 31.484375 C 149.890625 32.617188 148.878906 34.757812 147.210938 35.945312 C 144.171875 38.085938 140.597656 39.097656 137.980469 42.726562 C 136.371094 44.988281 135.238281 47.542969 133.691406 49.863281 C 132.976562 50.933594 130.417969 53.789062 130.296875 54.980469 C 130.117188 56.703125 131.667969 56.941406 132.976562 58.011719 C 137.382812 61.699219 141.789062 65.507812 145.960938 69.492188 C 150.664062 74.011719 154 78.472656 160.609375 80.019531 C 165.730469 81.207031 171.269531 82.457031 176.449219 83.410156 C 183.65625 84.777344 191.21875 83.648438 198.484375 84.183594 C 211.226562 85.195312 223.96875 86.382812 236.773438 86.382812 C 243.503906 86.382812 262.441406 84.957031 262.441406 84.957031 C 262.441406 84.957031 262.441406 10.3125 262.441406 10.3125 Z M 262.441406 10.3125 " fill-opacity="1" fill-rule="nonzero"/></g><g clip-path="url(#ddbf02387f)"><path fill="#4a6185" d="M 262.441406 89 C 262.441406 89 255.832031 88.285156 252.734375 88.285156 C 247.730469 88.226562 244.335938 83.707031 239.691406 82.339844 C 239.035156 82.160156 236.65625 82.101562 235.761719 81.921875 C 232.605469 81.328125 229.867188 80.199219 226.53125 80.671875 C 223.613281 81.089844 220.875 82.515625 217.894531 82.875 C 210.929688 83.707031 207.832031 75.855469 202.054688 72.644531 C 197.828125 70.265625 196.160156 71.8125 192.230469 71.75 C 188.894531 71.691406 186.929688 68.777344 184.964844 66.28125 C 180.378906 60.332031 173.53125 54.085938 167.457031 49.328125 C 164.417969 46.949219 160.726562 44.75 156.796875 45.164062 C 152.867188 45.582031 153.460938 46.53125 149.53125 44.808594 C 143.933594 42.308594 139.886719 36.957031 134.050781 34.996094 C 131.488281 34.101562 128.628906 33.566406 126.246094 32.199219 C 125.355469 31.664062 124.519531 31.128906 123.507812 30.890625 C 120.648438 30.058594 116.71875 30.652344 114.457031 28.332031 C 113.800781 27.679688 113.382812 27.320312 112.550781 26.964844 C 111.894531 26.667969 111.300781 26.546875 110.824219 26.074219 C 109.691406 24.941406 108.023438 24.464844 106.953125 23.21875 C 106 22.085938 105.226562 20.777344 104.273438 19.648438 C 102.664062 17.804688 101 16.019531 99.152344 14.472656 C 98.914062 14.296875 98.734375 14.117188 98.496094 13.878906 C 96.769531 12.453125 94.925781 11.203125 92.957031 10.191406 C 89.027344 8.109375 87.835938 7.457031 83.609375 9.300781 C 79.203125 11.203125 76.703125 13.285156 71.640625 13.164062 C 65.269531 12.988281 58.300781 16.855469 52.464844 20.066406 C 46.390625 23.457031 40.972656 27.917969 36.207031 32.914062 C 32.039062 37.253906 28.824219 42.191406 22.273438 43.144531 C 18.578125 43.679688 15.183594 42.429688 11.792969 44.628906 C 9.585938 46.058594 8.515625 48.257812 5.71875 48.914062 C 3.929688 49.328125 0 49.746094 0 49.746094 L 0 134.796875 L 262.382812 134.796875 L 262.382812 89 Z M 262.441406 89 " fill-opacity="1" fill-rule="nonzero"/></g><g clip-path="url(#d0b4ba68f2)"><path fill="#3a4768" d="M 0 75.976562 C 0 75.976562 5.417969 75.558594 7.921875 77.164062 C 10.300781 78.652344 11.316406 81.386719 14.234375 82.28125 C 18.9375 83.707031 23.523438 80.078125 26.917969 77.34375 C 33.289062 72.289062 38.054688 64.140625 46.210938 61.878906 C 48.117188 61.34375 50.203125 61.757812 52.105469 61.222656 C 54.964844 60.511719 58.359375 57.535156 61.039062 55.8125 C 63.957031 53.96875 71.28125 48.792969 75.210938 50.101562 C 76.523438 50.519531 75.6875 50.757812 76.640625 51.589844 C 77.417969 52.242188 77.953125 55.929688 78.667969 56.941406 C 80.097656 58.90625 82.300781 60.035156 84.144531 61.582031 C 90.277344 66.753906 92.660156 73.058594 100.699219 75.378906 C 112.671875 78.828125 121.304688 87.691406 129.941406 95.898438 C 136.550781 102.203125 141.613281 102.203125 149.828125 98.992188 C 157.035156 96.199219 163.40625 92.984375 169.242188 88.167969 C 173.234375 84.898438 175.734375 85.550781 180.558594 84.777344 C 192.109375 83.054688 196.578125 74.191406 206.046875 68.597656 C 211.285156 65.566406 213.488281 64.851562 218.730469 66.875 C 223.613281 68.71875 224.269531 69.195312 228.792969 67.648438 C 234.570312 65.683594 240.644531 64.675781 246.300781 62.234375 C 247.253906 61.820312 248.207031 60.925781 249.21875 60.75 C 250.648438 60.511719 252.078125 61.285156 253.390625 61.105469 C 256.425781 60.6875 262.261719 58.191406 262.261719 58.191406 L 262.261719 134.5625 L 0 134.5625 Z M 0 75.976562 " fill-opacity="1" fill-rule="nonzero"/></g><g clip-path="url(#6aca1de5e1)"><path fill="#232d47" d="M 262.441406 102.144531 C 262.441406 102.144531 254.699219 107.023438 250.707031 108.449219 C 247.253906 109.699219 245.109375 107.5 241.121094 107.023438 C 236.476562 106.488281 230.640625 104.167969 225.996094 105.058594 C 223.671875 105.535156 222.125 107.320312 219.386719 106.84375 C 215.992188 106.308594 214.441406 103.394531 212.179688 101.3125 C 207.714844 97.207031 202.175781 94.53125 196.933594 91.617188 C 190.027344 87.8125 183.535156 83.230469 176.6875 79.363281 C 170.195312 75.738281 163.585938 74.726562 157.871094 80.734375 C 151.320312 87.632812 145.722656 99.585938 135.539062 100.957031 C 130.535156 101.667969 125.769531 103.15625 120.710938 103.511719 C 114.457031 103.988281 114.695312 108.628906 109.574219 110.949219 C 107.371094 111.960938 105.703125 111.601562 103.5 111.1875 C 98.914062 110.292969 94.625 108.152344 89.625 109.042969 C 81.167969 110.472656 79.441406 119.453125 72.472656 123.496094 C 68.425781 125.878906 63.0625 125.402344 59.253906 127.839844 C 56.929688 129.328125 54.070312 134.5 54.070312 134.5 L 262.5 134.5 L 262.5 102.144531 Z M 262.441406 102.144531 " fill-opacity="1" fill-rule="nonzero"/></g><g clip-path="url(#94bee5dfcc)"><path fill="#232d47" d="M 17.75 102.070312 L 17.671875 102.070312 C 16.320312 102.085938 15.171875 102.351562 14.222656 102.863281 C 13.445312 103.109375 12.042969 104.160156 10.011719 106.023438 C 7.964844 108.3125 6.332031 110.921875 5.101562 113.851562 C 2.441406 115.164062 0.847656 116.195312 0.3125 116.941406 C -1.257812 121.730469 -2.652344 124.816406 -3.875 126.203125 L -9.382812 132.144531 C -9.96875 132.644531 -11.058594 133.03125 -12.652344 133.308594 C -12.890625 133.425781 -13.09375 133.683594 -13.257812 134.082031 L 91.746094 135.042969 C 91.550781 134.371094 91.132812 133.9375 90.484375 133.734375 L 85.1875 132.234375 C 83.4375 130.492188 82.316406 129.523438 81.832031 129.328125 C 79.71875 129.488281 75.664062 128.726562 69.675781 127.046875 L 65.023438 126.898438 C 64.304688 126.71875 62.710938 125.820312 60.246094 124.203125 C 56.921875 123.859375 55.089844 123.585938 54.746094 123.386719 L 49.082031 118.09375 C 48.691406 117.785156 46.605469 117.332031 42.832031 116.738281 C 41.867188 116.503906 40.570312 115.980469 38.933594 115.167969 C 36.09375 113.789062 33.019531 111.40625 29.710938 108.023438 L 25.078125 106.535156 C 23.996094 105.378906 22.492188 104.183594 20.5625 102.953125 C 19.507812 102.363281 18.570312 102.070312 17.75 102.070312 " fill-opacity="1" fill-rule="nonzero"/></g></svg>