<svg xmlns="http://www.w3.org/2000/svg" xmlns:xlink="http://www.w3.org/1999/xlink" width="320" zoomAndPan="magnify" viewBox="0 0 240 78.749999" height="105" preserveAspectRatio="xMidYMid meet" version="1.0"><defs><clipPath id="446a49a1d4"><path d="M 0.378906 2 L 77 2 L 77 55 L 0.378906 55 Z M 0.378906 2 " clip-rule="nonzero"/></clipPath><clipPath id="2ec4f15f58"><path d="M 0.378906 20 L 135 20 L 135 78.050781 L 0.378906 78.050781 Z M 0.378906 20 " clip-rule="nonzero"/></clipPath><clipPath id="564fcc1bb2"><path d="M 80 0.296875 L 239.621094 0.296875 L 239.621094 74 L 80 74 Z M 80 0.296875 " clip-rule="nonzero"/></clipPath><clipPath id="900c094b47"><path d="M 14 15 L 239.621094 15 L 239.621094 78 L 14 78 Z M 14 15 " clip-rule="nonzero"/></clipPath><clipPath id="d91f44e3c4"><path d="M 0.378906 63 L 48.976562 63 L 48.976562 77.929688 L 0.378906 77.929688 Z M 0.378906 63 " clip-rule="nonzero"/></clipPath><clipPath id="d4ed73b2ab"><path d="M 31.730469 43.15625 L 93 43.15625 L 93 55.863281 L 31.730469 55.863281 Z M 31.730469 43.15625 " clip-rule="nonzero"/></clipPath><clipPath id="bbbd4a89da"><path d="M 1.316406 22.527344 L 28.230469 22.527344 L 28.230469 35.234375 L 1.316406 35.234375 Z M 1.316406 22.527344 " clip-rule="nonzero"/></clipPath><clipPath id="1b4ba03fcd"><path d="M 110.382812 49.347656 L 150.007812 49.347656 L 150.007812 67.292969 L 110.382812 67.292969 Z M 110.382812 49.347656 " clip-rule="nonzero"/></clipPath></defs><path fill="#d3dbe4" d="M 195.949219 24 C 193.945312 24.84375 191.78125 25.214844 189.617188 25.636719 C 188.035156 25.949219 185.820312 26.636719 184.238281 26.160156 C 184.132812 24.632812 182.863281 24.265625 181.757812 23.476562 C 180.015625 22.261719 178.273438 21.105469 176.21875 20.417969 C 174.949219 20 174.476562 19.683594 173.578125 18.785156 C 173 18.261719 172.523438 18.261719 171.785156 18.261719 C 170.835938 18.261719 169.992188 18.101562 169.09375 17.945312 C 168.355469 17.785156 167.878906 17.523438 167.195312 17.3125 C 166.507812 17.101562 165.929688 17.257812 165.296875 17.152344 C 164.660156 17.046875 164.503906 16.730469 164.082031 16.363281 C 163.5 15.890625 162.183594 15.785156 161.707031 15.257812 C 161.230469 14.730469 161.8125 13.625 160.757812 13.359375 C 160.070312 13.203125 159.597656 13.730469 159.175781 14.152344 C 157.960938 15.308594 156.90625 16.574219 155.902344 17.890625 C 155.269531 18.679688 154.265625 19.894531 154.003906 20.894531 C 153.738281 21.789062 154.109375 22.738281 153.898438 23.632812 C 153.6875 24.476562 153.054688 25.265625 152.789062 26.160156 C 152.472656 27.214844 152.261719 28.109375 151.628906 29.007812 C 150.574219 30.429688 149.042969 31.429688 148.675781 33.167969 C 148.515625 33.800781 148.515625 34.484375 147.9375 34.90625 C 147.25 35.484375 146.300781 35.222656 145.457031 35.222656 C 144.136719 35.222656 142.816406 35.222656 141.550781 35.222656 C 139.808594 35.222656 139.703125 36.328125 138.597656 37.277344 C 137.964844 37.804688 137.171875 38.066406 136.539062 38.644531 C 136.167969 39.015625 135.746094 39.859375 135.378906 40.070312 C 134.902344 40.382812 133.269531 40.121094 132.738281 40.121094 C 131.578125 40.121094 130.417969 40.015625 129.3125 40.226562 C 128.308594 40.382812 127.410156 40.4375 126.410156 40.488281 C 125.140625 40.542969 123.980469 41.332031 122.980469 42.125 C 121.5 43.175781 120.289062 44.703125 118.863281 45.8125 C 117.226562 47.128906 115.59375 47.863281 113.585938 48.496094 C 110.316406 49.5 107.203125 50.867188 103.984375 52.027344 C 102.191406 52.660156 100.34375 52.816406 98.550781 53.449219 C 97.496094 53.816406 95.121094 54.660156 94.328125 55.554688 C 96.175781 56.976562 98.761719 57.664062 100.925781 58.296875 C 110.105469 60.929688 119.867188 59.347656 129.203125 59.03125 C 133.636719 58.875 138.015625 58.402344 142.449219 57.980469 C 147.410156 57.503906 152.367188 57.292969 157.273438 56.714844 C 162.5 56.082031 167.617188 55.238281 172.789062 54.34375 C 175.214844 53.871094 177.640625 53.5 180.121094 53.289062 C 181.703125 53.132812 183.289062 52.976562 184.871094 52.816406 C 188.246094 51.816406 190.886719 48.867188 193.207031 46.285156 C 194.261719 45.125 195.316406 44.074219 196.53125 43.070312 C 197.480469 42.332031 198.589844 41.542969 198.957031 40.332031 C 199.378906 38.960938 199.117188 36.539062 199.011719 35.167969 C 198.851562 33.589844 198.484375 32.0625 198.167969 30.535156 C 198.007812 29.742188 198.0625 28.691406 197.425781 28.109375 C 196.636719 27.53125 196.054688 27.582031 195.949219 24 Z M 195.949219 24 " fill-opacity="1" fill-rule="nonzero"/><g clip-path="url(#446a49a1d4)"><path fill="#d3dbe4" d="M 76.125 51.183594 C 75.863281 51.394531 75.386719 51.605469 75.070312 51.710938 C 72.960938 52.710938 70.796875 53.765625 68.582031 54.34375 C 66.46875 54.925781 64.253906 55.082031 62.039062 54.449219 C 60.136719 53.871094 58.34375 52.921875 56.445312 52.289062 C 53.914062 51.5 51.273438 51.132812 48.636719 50.550781 C 44.097656 49.5 39.613281 48.65625 35.023438 48.179688 C 31.644531 47.863281 28.269531 47.601562 24.890625 47.390625 C 21.199219 47.128906 17.503906 46.917969 13.8125 46.652344 C 10.222656 46.125 6.476562 45.441406 4 42.542969 C 2.203125 40.488281 1.203125 38.015625 0.304688 35.433594 C 0.09375 34.800781 -0.117188 34.222656 -0.277344 33.589844 L -0.277344 8.304688 C 0.304688 8.09375 0.9375 7.988281 1.625 8.144531 C 2.414062 8.304688 3.683594 8.777344 4.527344 8.460938 C 4.894531 8.304688 4.683594 8.25 4.949219 8.09375 C 5.371094 7.828125 5.898438 7.25 6.320312 6.933594 C 7.691406 5.828125 8.589844 4.457031 10.066406 3.511719 C 11.542969 2.5625 13.441406 2.296875 14.816406 3.457031 C 16.132812 4.5625 16.609375 6.144531 17.347656 7.617188 C 17.769531 8.410156 18.296875 10.09375 19.246094 10.304688 C 19.933594 10.464844 20.511719 10.148438 21.09375 9.988281 C 21.832031 9.777344 22.835938 9.777344 23.574219 9.882812 C 24.574219 10.042969 24.734375 10.570312 25.261719 11.359375 C 25.894531 12.308594 26.527344 13.203125 27.109375 14.152344 C 27.53125 14.835938 28.003906 15.519531 28.480469 16.207031 C 29.21875 17.207031 30.0625 18.101562 30.855469 18.996094 C 33.386719 21.84375 35.550781 25.109375 39.351562 26.425781 C 42.304688 27.480469 45.152344 26.53125 48.160156 26.476562 C 50.007812 26.476562 51.695312 27.953125 52.539062 29.53125 C 53.332031 31.007812 54.28125 32.0625 55.441406 33.21875 C 56.445312 34.222656 57.023438 35.695312 58.132812 36.539062 C 59.292969 37.433594 60.507812 37.539062 61.5625 38.59375 C 62.460938 39.542969 63.566406 39.753906 64.410156 40.59375 C 65.203125 41.386719 65.308594 42.542969 65.996094 43.492188 C 66.46875 44.125 66.945312 44.863281 67.578125 45.285156 C 67.945312 45.546875 68.582031 45.546875 68.898438 45.757812 C 69.160156 45.914062 69.265625 46.230469 69.371094 46.496094 C 69.425781 46.601562 69.53125 46.757812 69.636719 46.863281 C 70.53125 47.863281 72.0625 48.074219 72.90625 49.128906 C 73.433594 49.761719 73.277344 49.65625 74.015625 49.917969 C 74.015625 49.917969 74.066406 49.917969 74.066406 49.917969 C 74.59375 50.078125 75.546875 49.972656 75.914062 50.183594 C 76.496094 50.710938 76.441406 50.972656 76.125 51.183594 Z M 76.125 51.183594 " fill-opacity="1" fill-rule="nonzero"/></g><g clip-path="url(#2ec4f15f58)"><path fill="#87a0c4" d="M 133.425781 48.128906 C 132.6875 49.445312 132.792969 50.605469 132.527344 52.027344 C 132.265625 53.5 131.894531 54.660156 130.734375 55.660156 C 130.417969 55.925781 130.101562 56.1875 129.785156 56.398438 C 128.148438 57.609375 126.304688 58.507812 124.457031 59.347656 C 123.929688 59.613281 123.453125 59.824219 122.925781 60.035156 C 115.75 63.300781 109.789062 68.726562 102.558594 71.832031 C 101.875 72.148438 101.1875 72.414062 100.503906 72.730469 C 97.125 74.097656 93.539062 75.257812 90.003906 75.785156 C 86.890625 76.207031 83.777344 76.152344 80.609375 76.152344 C 76.441406 76.152344 72.484375 76.890625 68.476562 77.628906 C 67.734375 77.785156 67.050781 77.890625 66.363281 78.050781 L -0.328125 78.050781 L -0.328125 20.839844 C 2.363281 20.523438 5.582031 19.789062 7.480469 21.683594 C 8.273438 22.472656 8.800781 23.476562 9.433594 24.421875 C 10.488281 25.949219 12.019531 27.058594 13.390625 28.320312 C 14.761719 29.636719 15.765625 31.902344 17.769531 31.902344 C 20.195312 31.851562 22.835938 31.640625 25.261719 31.902344 C 26.210938 32.007812 25.84375 32.0625 26.316406 32.746094 C 26.84375 33.484375 27.953125 33.851562 28.640625 34.433594 C 29.273438 35.011719 29.484375 35.273438 30.433594 35.273438 C 31.644531 35.273438 32.753906 34.644531 33.863281 34.222656 C 35.921875 33.429688 37.765625 31.957031 39.984375 31.585938 C 41.617188 31.324219 44.152344 31.0625 45.363281 32.324219 C 46.472656 33.535156 47.054688 35.167969 48.109375 36.433594 C 49.269531 37.855469 50.535156 39.488281 52.277344 40.226562 C 53.4375 40.699219 54.441406 41.4375 55.546875 41.859375 C 56.074219 42.070312 56.65625 42.125 57.183594 42.4375 C 57.765625 42.808594 58.34375 43.546875 58.871094 44.019531 C 60.664062 45.601562 62.617188 46.230469 64.992188 46.285156 C 66.46875 46.335938 67.945312 46.601562 69.425781 46.652344 C 69.476562 46.652344 69.53125 46.652344 69.582031 46.652344 C 70.425781 46.652344 71.113281 46.496094 71.800781 46.96875 C 72.484375 47.445312 72.855469 48.707031 73.328125 49.339844 C 73.539062 49.65625 73.804688 49.917969 74.121094 50.128906 C 74.699219 50.605469 75.386719 50.921875 76.074219 51.183594 C 77.128906 51.550781 78.289062 51.710938 79.34375 51.65625 C 81.71875 51.550781 83.933594 50.339844 86.308594 50.445312 C 87.207031 50.5 87.785156 50.921875 88.628906 51.238281 C 89.527344 51.550781 90.214844 51.761719 91.003906 52.289062 C 91.585938 52.660156 92.164062 52.976562 92.796875 53.082031 C 94.75 53.34375 96.753906 52.394531 98.707031 52.394531 C 99.289062 52.394531 99.816406 52.394531 100.394531 52.394531 C 101.769531 52.394531 102.347656 51.761719 103.457031 51.238281 C 104.511719 50.761719 105.9375 50.605469 107.253906 50.816406 C 107.308594 50.816406 107.359375 50.816406 107.464844 50.867188 C 108.417969 51.078125 108.628906 51.445312 109.417969 51.867188 C 110.210938 52.289062 111.054688 51.867188 111.898438 51.710938 C 113.058594 51.5 114.273438 51.710938 115.382812 51.445312 C 116.171875 51.289062 116.804688 50.972656 117.4375 50.5 C 118.335938 49.867188 118.96875 49.445312 120.078125 49.339844 C 120.710938 49.289062 121.34375 49.445312 121.921875 49.394531 C 122.558594 49.339844 123.191406 49.183594 123.824219 48.972656 C 127.199219 47.863281 130.3125 45.335938 134.007812 45.96875 C 134.480469 46.652344 133.742188 47.550781 133.425781 48.128906 Z M 133.425781 48.128906 " fill-opacity="1" fill-rule="nonzero"/></g><g clip-path="url(#564fcc1bb2)"><path fill="#748eb2" d="M 240.695312 10.832031 L 240.695312 59.558594 C 240.640625 59.824219 240.535156 60.085938 240.480469 60.402344 C 240.058594 61.929688 240.113281 64.144531 238.265625 64.246094 C 236.261719 64.351562 234.152344 64.246094 232.144531 64.195312 C 226.710938 64.144531 221.277344 65.144531 215.894531 65.828125 C 211.199219 66.40625 206.503906 66.988281 201.808594 67.515625 C 196.53125 68.09375 191.359375 68.144531 186.03125 68.25 C 181.597656 68.355469 177.21875 68.460938 172.789062 68.515625 C 167.984375 68.566406 163.449219 68.9375 158.699219 69.304688 C 152.578125 69.777344 146.40625 69.777344 140.234375 70.199219 C 135.429688 70.515625 130.628906 70.832031 125.882812 71.203125 C 124.191406 71.308594 122.453125 71.414062 120.761719 71.675781 C 119.601562 71.886719 118.441406 72.203125 117.28125 72.414062 C 115.277344 72.675781 113.007812 72.941406 110.949219 72.886719 C 109.207031 72.835938 107.570312 73.414062 105.882812 73.203125 C 103.929688 72.941406 102.347656 72.625 100.554688 72.730469 C 100.078125 72.730469 99.550781 72.78125 99.023438 72.886719 C 97.917969 73.097656 96.332031 73.675781 95.382812 73.046875 C 95.121094 72.886719 94.328125 71.253906 94.277344 70.992188 C 90.953125 72.253906 80.980469 68.199219 80.875 63.933594 C 82.773438 63.828125 84.882812 64.144531 86.785156 63.878906 C 87.679688 63.773438 88.472656 63.511719 89.210938 63.195312 C 90.953125 62.457031 92.375 61.296875 94.382812 60.71875 C 96.863281 59.980469 99.605469 59.769531 102.03125 58.925781 C 102.191406 58.875 102.402344 58.820312 102.558594 58.71875 C 104.089844 58.085938 105.410156 56.976562 106.992188 56.503906 C 108.523438 56.03125 110.210938 57.03125 111.847656 56.347656 C 113.957031 55.449219 114.324219 54.1875 116.753906 53.660156 C 120.183594 52.921875 122.1875 50.921875 124.191406 48.867188 C 125.5625 47.445312 126.9375 45.96875 128.78125 44.757812 C 132.316406 42.4375 137.859375 44.28125 141.65625 44.070312 C 143.503906 43.96875 145.140625 43.386719 146.773438 42.859375 C 148.042969 42.4375 149.359375 42.019531 150.839844 41.914062 C 153.632812 41.753906 156.007812 41.648438 158.699219 40.488281 C 158.699219 40.488281 158.699219 40.488281 158.753906 40.488281 C 161.441406 39.332031 162.289062 36.855469 164.1875 34.855469 C 166.71875 32.21875 170.253906 31.324219 173.105469 29.113281 C 174.949219 27.6875 176.324219 25.84375 178.222656 24.527344 C 179.171875 23.894531 180.121094 23.371094 181.125 22.949219 C 183.65625 21.84375 186.292969 21.050781 188.773438 19.839844 C 191.464844 18.46875 190.886719 17.679688 192.46875 15.308594 C 194.789062 11.9375 198.113281 9.25 200.539062 5.933594 C 202.492188 3.300781 203.125 0.296875 206.871094 0.296875 C 210.777344 0.296875 212.042969 4.40625 215.472656 5.773438 C 219.535156 7.40625 224.707031 5.828125 228.875 7.617188 C 231.144531 8.621094 233.515625 11.042969 235.679688 11.570312 C 236.734375 11.832031 238.636719 11.464844 240.695312 10.832031 Z M 240.695312 10.832031 " fill-opacity="1" fill-rule="nonzero"/></g><g clip-path="url(#900c094b47)"><path fill="#667fa3" d="M 240.695312 15.679688 L 240.695312 77.996094 L 14.234375 77.996094 C 14.921875 77.628906 15.660156 77.152344 16.398438 76.628906 C 21.886719 72.835938 27.371094 73.363281 33.703125 72.519531 C 38.453125 71.886719 42.566406 69.515625 47.421875 68.9375 C 52.222656 68.410156 57.34375 70.621094 61.5625 68.09375 C 63.460938 66.988281 63.988281 64.878906 65.625 63.457031 C 68.632812 60.824219 72.328125 60.191406 76.179688 60.140625 C 81.03125 60.140625 84.671875 61.507812 89 63.140625 C 89.105469 63.195312 89.261719 63.246094 89.367188 63.300781 C 93.484375 64.878906 98.445312 65.671875 102.347656 63.933594 C 104.828125 62.824219 107.359375 61.085938 109.945312 59.71875 C 112.058594 58.613281 114.21875 57.714844 116.488281 57.503906 C 118.8125 57.292969 119.8125 57.769531 122.292969 57.136719 C 124.085938 56.664062 126.355469 54.714844 127.515625 57.398438 C 128.253906 56.875 128.992188 56.558594 129.734375 56.347656 C 131.683594 55.765625 133.636719 55.871094 135.273438 54.714844 C 136.804688 53.605469 137.382812 51.183594 138.859375 49.972656 C 140.074219 48.972656 141.445312 49.183594 142.816406 48.179688 C 144.824219 46.707031 145.667969 44.652344 146.511719 42.859375 C 147.726562 40.226562 148.9375 38.121094 153.421875 39.066406 C 155.164062 39.4375 156.589844 40.226562 158.4375 40.488281 C 158.964844 40.59375 159.492188 40.59375 160.125 40.59375 C 162.761719 40.488281 165.453125 39.171875 168.460938 39.015625 C 171.414062 38.855469 173.84375 40.226562 176.375 38.066406 C 180.964844 34.117188 181.597656 31.113281 187.878906 29.53125 C 190.726562 28.847656 193.574219 28.003906 196.425781 27.375 C 199.855469 26.636719 203.335938 26.160156 206.976562 26.53125 C 213.625 27.164062 216.210938 26.792969 221.328125 22.105469 C 226.394531 17.46875 227.238281 17.574219 233.519531 17.628906 C 233.886719 17.628906 234.257812 17.574219 234.679688 17.523438 C 236.472656 17.207031 238.582031 16.46875 240.695312 15.679688 Z M 240.695312 15.679688 " fill-opacity="1" fill-rule="nonzero"/></g><g clip-path="url(#d91f44e3c4)"><path fill="#667fa3" d="M -31.648438 79.007812 C -29.140625 76.417969 -25.460938 77.347656 -22.597656 75.527344 C -20.246094 74.03125 -18.789062 71.703125 -16.878906 69.726562 C -15.53125 68.332031 -13.398438 67.851562 -11.839844 66.695312 C -10.449219 65.664062 -8.449219 64.007812 -6.640625 63.792969 C -5.210938 63.621094 -3.109375 64.945312 -2 65.828125 C -1.390625 66.316406 -1.027344 67.238281 -0.113281 67.144531 C 3.847656 66.738281 7.527344 62.980469 11.417969 64.191406 C 13.03125 64.691406 14.1875 66.429688 15.523438 67.351562 C 16.628906 68.113281 18.082031 68.304688 19.125 69.132812 C 20.882812 70.53125 21.914062 72.167969 24.179688 72.925781 C 26.242188 73.613281 28.523438 73.269531 30.621094 73.808594 C 32.53125 74.296875 33.886719 75.875 35.851562 76.324219 C 39.078125 77.0625 42.625 76.523438 45.835938 77.199219 C 47.214844 77.488281 48.035156 78.652344 49.089844 79.425781 Z M -31.648438 79.007812 " fill-opacity="1" fill-rule="evenodd"/></g><g clip-path="url(#d4ed73b2ab)"><path fill="#87a0c4" d="M 31.789062 55.617188 C 31.78125 54.558594 33.097656 52.800781 33.886719 52.164062 C 35.023438 51.242188 36.460938 51.929688 37.550781 51.390625 C 37.984375 51.175781 38.308594 50.570312 38.707031 50.265625 C 40.75 48.726562 43.757812 46.339844 46.484375 46.691406 C 48.957031 47.011719 50.015625 50.804688 52.660156 50.535156 C 55.777344 50.21875 57.753906 46.675781 60.691406 46.011719 C 61.917969 45.730469 63.175781 46.5625 64.378906 46.21875 C 66.675781 45.5625 69.429688 43.152344 71.902344 43.570312 C 72.972656 43.753906 74.433594 45.792969 75.886719 46.207031 C 77.453125 46.652344 79.144531 45.625 80.710938 46.144531 C 82.128906 46.617188 82.976562 48.398438 84.144531 49.285156 C 85.167969 50.058594 86.589844 50.324219 87.742188 50.847656 C 89.976562 51.863281 91.601562 53.910156 92.976562 55.863281 Z M 31.789062 55.617188 " fill-opacity="1" fill-rule="evenodd"/></g><g clip-path="url(#bbbd4a89da)"><path fill="#87a0c4" d="M -32.824219 34.988281 C -32.832031 33.929688 -31.515625 32.171875 -30.726562 31.535156 C -29.589844 30.613281 -28.152344 31.300781 -27.066406 30.761719 C -26.628906 30.546875 -26.308594 29.941406 -25.90625 29.636719 C -23.863281 28.097656 -20.855469 25.710938 -18.128906 26.0625 C -15.65625 26.382812 -14.601562 30.175781 -11.953125 29.90625 C -8.835938 29.589844 -6.859375 26.046875 -3.921875 25.382812 C -2.695312 25.101562 -1.4375 25.933594 -0.234375 25.589844 C 2.0625 24.933594 4.816406 22.523438 7.289062 22.941406 C 8.359375 23.125 9.820312 25.164062 11.273438 25.578125 C 12.839844 26.023438 14.53125 24.996094 16.097656 25.515625 C 17.515625 25.988281 18.359375 27.769531 19.53125 28.65625 C 20.554688 29.429688 21.976562 29.695312 23.128906 30.21875 C 25.359375 31.234375 26.988281 33.28125 28.363281 35.234375 Z M -32.824219 34.988281 " fill-opacity="1" fill-rule="evenodd"/></g><g clip-path="url(#1b4ba03fcd)"><path fill="#667fa3" d="M 200.378906 66.941406 C 200.390625 65.449219 198.449219 62.964844 197.285156 62.066406 C 195.605469 60.765625 193.488281 61.738281 191.882812 60.976562 C 191.238281 60.671875 190.761719 59.816406 190.171875 59.390625 C 187.160156 57.214844 182.722656 53.847656 178.699219 54.34375 C 175.050781 54.792969 173.492188 60.148438 169.585938 59.769531 C 164.988281 59.320312 162.070312 54.320312 157.738281 53.378906 C 155.925781 52.988281 154.074219 54.160156 152.296875 53.675781 C 148.90625 52.75 144.84375 49.34375 141.199219 49.9375 C 139.617188 50.195312 137.460938 53.074219 135.320312 53.65625 C 133.003906 54.289062 130.511719 52.835938 128.203125 53.570312 C 126.105469 54.238281 124.859375 56.753906 123.132812 58.003906 C 121.625 59.097656 119.527344 59.472656 117.824219 60.210938 C 114.53125 61.644531 112.132812 64.535156 110.105469 67.289062 Z M 200.378906 66.941406 " fill-opacity="1" fill-rule="evenodd"/></g></svg>