<svg xmlns="http://www.w3.org/2000/svg" xmlns:xlink="http://www.w3.org/1999/xlink" width="320" zoomAndPan="magnify" viewBox="0 0 240 77.999999" height="104" preserveAspectRatio="xMidYMid meet" version="1.0"><defs><clipPath id="d95537c607"><path d="M 0 20 L 134 20 L 134 77.851562 L 0 77.851562 Z M 0 20 " clip-rule="nonzero"/></clipPath><clipPath id="4e06d85407"><path d="M 80 0.601562 L 240 0.601562 L 240 74 L 80 74 Z M 80 0.601562 " clip-rule="nonzero"/></clipPath><clipPath id="81d672632e"><path d="M 14 15 L 240 15 L 240 77.851562 L 14 77.851562 Z M 14 15 " clip-rule="nonzero"/></clipPath><clipPath id="263ecd5377"><path d="M 0 63 L 48.75 63 L 48.75 77.917969 L 0 77.917969 Z M 0 63 " clip-rule="nonzero"/></clipPath><clipPath id="db850a3bba"><path d="M 31.320312 43.113281 L 92.070312 43.113281 L 92.070312 55.863281 L 31.320312 55.863281 Z M 31.320312 43.113281 " clip-rule="nonzero"/></clipPath></defs><path fill="#9ebae1" d="M 195.292969 24.152344 C 193.300781 24.988281 191.152344 25.355469 189 25.773438 C 187.429688 26.089844 185.226562 26.769531 183.652344 26.296875 C 183.546875 24.78125 182.289062 24.414062 181.1875 23.628906 C 179.457031 22.425781 177.726562 21.273438 175.683594 20.59375 C 174.425781 20.175781 173.953125 19.859375 173.0625 18.96875 C 172.484375 18.445312 172.011719 18.445312 171.277344 18.445312 C 170.335938 18.445312 169.496094 18.289062 168.605469 18.132812 C 167.871094 17.976562 167.398438 17.714844 166.71875 17.503906 C 166.035156 17.296875 165.460938 17.453125 164.828125 17.347656 C 164.199219 17.242188 164.042969 16.929688 163.625 16.5625 C 163.046875 16.09375 161.738281 15.988281 161.265625 15.464844 C 160.792969 14.941406 161.371094 13.839844 160.320312 13.578125 C 159.640625 13.421875 159.167969 13.945312 158.746094 14.363281 C 157.542969 15.515625 156.492188 16.773438 155.496094 18.082031 C 154.867188 18.867188 153.871094 20.070312 153.609375 21.0625 C 153.347656 21.953125 153.714844 22.894531 153.503906 23.785156 C 153.292969 24.621094 152.664062 25.40625 152.402344 26.296875 C 152.089844 27.34375 151.878906 28.234375 151.25 29.125 C 150.203125 30.535156 148.679688 31.53125 148.3125 33.257812 C 148.15625 33.886719 148.15625 34.566406 147.578125 34.984375 C 146.898438 35.5625 145.953125 35.300781 145.113281 35.300781 C 143.804688 35.300781 142.492188 35.300781 141.234375 35.300781 C 139.503906 35.300781 139.398438 36.398438 138.300781 37.339844 C 137.667969 37.863281 136.882812 38.125 136.253906 38.703125 C 135.886719 39.066406 135.46875 39.90625 135.101562 40.113281 C 134.628906 40.429688 133.003906 40.167969 132.480469 40.167969 C 131.324219 40.167969 130.171875 40.0625 129.070312 40.273438 C 128.074219 40.429688 127.183594 40.480469 126.1875 40.535156 C 124.929688 40.585938 123.773438 41.371094 122.777344 42.15625 C 121.3125 43.203125 120.105469 44.71875 118.6875 45.820312 C 117.0625 47.128906 115.4375 47.859375 113.445312 48.488281 C 110.195312 49.484375 107.101562 50.84375 103.902344 51.996094 C 102.121094 52.625 100.285156 52.78125 98.503906 53.410156 C 97.453125 53.773438 95.09375 54.613281 94.308594 55.503906 C 96.144531 56.914062 98.710938 57.59375 100.863281 58.222656 C 109.984375 60.839844 119.683594 59.269531 128.964844 58.957031 C 133.371094 58.800781 137.722656 58.328125 142.125 57.910156 C 147.054688 57.4375 151.984375 57.230469 156.859375 56.652344 C 162.050781 56.023438 167.136719 55.1875 172.273438 54.296875 C 174.6875 53.828125 177.097656 53.460938 179.5625 53.25 C 181.136719 53.09375 182.710938 52.9375 184.28125 52.78125 C 187.636719 51.785156 190.257812 48.855469 192.566406 46.289062 C 193.617188 45.140625 194.664062 44.09375 195.871094 43.097656 C 196.8125 42.367188 197.914062 41.582031 198.28125 40.375 C 198.703125 39.015625 198.4375 36.609375 198.335938 35.246094 C 198.175781 33.675781 197.808594 32.160156 197.496094 30.640625 C 197.339844 29.855469 197.390625 28.808594 196.761719 28.234375 C 195.976562 27.660156 195.398438 27.710938 195.292969 24.152344 Z M 195.292969 24.152344 " fill-opacity="1" fill-rule="nonzero"/><path fill="#9ebae1" d="M 76.21875 51.15625 C 75.957031 51.367188 75.484375 51.578125 75.171875 51.679688 C 73.074219 52.675781 70.921875 53.722656 68.722656 54.296875 C 66.625 54.875 64.421875 55.03125 62.21875 54.402344 C 60.332031 53.828125 58.550781 52.886719 56.660156 52.257812 C 54.144531 51.472656 51.523438 51.105469 48.902344 50.53125 C 44.390625 49.484375 39.933594 48.644531 35.375 48.175781 C 32.019531 47.859375 28.664062 47.597656 25.304688 47.390625 C 21.636719 47.128906 17.964844 46.917969 14.296875 46.65625 C 10.730469 46.132812 7.007812 45.453125 4.542969 42.574219 C 2.761719 40.535156 1.765625 38.074219 0.871094 35.507812 C 0.664062 34.882812 0.453125 34.304688 0.296875 33.675781 L 0.296875 8.554688 C 0.871094 8.347656 1.503906 8.242188 2.183594 8.398438 C 2.96875 8.554688 4.230469 9.027344 5.066406 8.710938 C 5.433594 8.554688 5.226562 8.503906 5.488281 8.347656 C 5.90625 8.085938 6.429688 7.507812 6.851562 7.195312 C 8.214844 6.09375 9.105469 4.734375 10.574219 3.792969 C 12.042969 2.851562 13.929688 2.589844 15.292969 3.742188 C 16.601562 4.839844 17.074219 6.410156 17.808594 7.875 C 18.226562 8.660156 18.753906 10.335938 19.695312 10.542969 C 20.378906 10.699219 20.953125 10.386719 21.53125 10.230469 C 22.265625 10.019531 23.261719 10.019531 23.996094 10.125 C 24.992188 10.28125 25.148438 10.804688 25.671875 11.589844 C 26.304688 12.53125 26.933594 13.421875 27.507812 14.363281 C 27.929688 15.046875 28.398438 15.726562 28.871094 16.40625 C 29.605469 17.398438 30.445312 18.289062 31.230469 19.179688 C 33.75 22.007812 35.898438 25.25 39.671875 26.558594 C 42.609375 27.605469 45.441406 26.664062 48.429688 26.613281 C 50.265625 26.613281 51.941406 28.078125 52.78125 29.648438 C 53.566406 31.113281 54.511719 32.160156 55.664062 33.3125 C 56.660156 34.304688 57.238281 35.769531 58.339844 36.609375 C 59.492188 37.496094 60.699219 37.601562 61.746094 38.648438 C 62.636719 39.589844 63.738281 39.800781 64.578125 40.636719 C 65.363281 41.421875 65.46875 42.574219 66.152344 43.515625 C 66.625 44.144531 67.09375 44.878906 67.726562 45.296875 C 68.089844 45.558594 68.722656 45.558594 69.035156 45.765625 C 69.296875 45.925781 69.402344 46.238281 69.507812 46.5 C 69.558594 46.605469 69.664062 46.761719 69.769531 46.867188 C 70.660156 47.859375 72.179688 48.070312 73.019531 49.117188 C 73.542969 49.746094 73.386719 49.640625 74.121094 49.902344 C 74.121094 49.902344 74.175781 49.902344 74.175781 49.902344 C 74.699219 50.058594 75.640625 49.953125 76.007812 50.164062 C 76.585938 50.6875 76.535156 50.949219 76.21875 51.15625 Z M 76.21875 51.15625 " fill-opacity="1" fill-rule="nonzero"/><g clip-path="url(#d95537c607)"><path fill="#4a6185" d="M 133.160156 48.121094 C 132.425781 49.429688 132.53125 50.582031 132.269531 51.996094 C 132.007812 53.460938 131.640625 54.613281 130.488281 55.605469 C 130.171875 55.867188 129.855469 56.128906 129.542969 56.339844 C 127.917969 57.542969 126.082031 58.433594 124.246094 59.269531 C 123.722656 59.53125 123.25 59.742188 122.726562 59.949219 C 115.59375 63.195312 109.671875 68.585938 102.488281 71.675781 C 101.804688 71.988281 101.125 72.25 100.441406 72.5625 C 97.085938 73.925781 93.523438 75.074219 90.007812 75.597656 C 86.914062 76.019531 83.820312 75.964844 80.675781 75.964844 C 76.535156 75.964844 72.601562 76.699219 68.617188 77.429688 C 67.882812 77.589844 67.199219 77.691406 66.519531 77.851562 L 0.242188 77.851562 L 0.242188 21.011719 C 2.917969 20.699219 6.117188 19.964844 8.003906 21.847656 C 8.789062 22.632812 9.316406 23.628906 9.945312 24.570312 C 10.992188 26.089844 12.511719 27.1875 13.875 28.445312 C 15.238281 29.75 16.234375 32.003906 18.226562 32.003906 C 20.640625 31.949219 23.261719 31.742188 25.671875 32.003906 C 26.617188 32.105469 26.25 32.160156 26.722656 32.839844 C 27.246094 33.574219 28.347656 33.9375 29.03125 34.515625 C 29.660156 35.089844 29.867188 35.351562 30.8125 35.351562 C 32.019531 35.351562 33.117188 34.722656 34.21875 34.304688 C 36.265625 33.519531 38.101562 32.054688 40.300781 31.6875 C 41.929688 31.425781 44.445312 31.164062 45.652344 32.421875 C 46.75 33.625 47.328125 35.246094 48.378906 36.503906 C 49.53125 37.917969 50.789062 39.539062 52.519531 40.273438 C 53.671875 40.742188 54.667969 41.476562 55.769531 41.894531 C 56.292969 42.105469 56.871094 42.15625 57.394531 42.46875 C 57.972656 42.835938 58.550781 43.570312 59.074219 44.039062 C 60.855469 45.609375 62.796875 46.238281 65.15625 46.289062 C 66.625 46.34375 68.089844 46.605469 69.558594 46.65625 C 69.613281 46.65625 69.664062 46.65625 69.71875 46.65625 C 70.554688 46.65625 71.238281 46.5 71.917969 46.972656 C 72.601562 47.441406 72.96875 48.699219 73.441406 49.324219 C 73.648438 49.640625 73.910156 49.902344 74.226562 50.109375 C 74.804688 50.582031 75.484375 50.894531 76.167969 51.15625 C 77.214844 51.523438 78.367188 51.679688 79.417969 51.628906 C 81.777344 51.523438 83.980469 50.320312 86.339844 50.425781 C 87.230469 50.476562 87.804688 50.894531 88.644531 51.210938 C 89.535156 51.523438 90.21875 51.734375 91.003906 52.257812 C 91.582031 52.625 92.160156 52.9375 92.789062 53.042969 C 94.726562 53.304688 96.71875 52.363281 98.660156 52.363281 C 99.238281 52.363281 99.761719 52.363281 100.335938 52.363281 C 101.699219 52.363281 102.277344 51.734375 103.378906 51.210938 C 104.425781 50.738281 105.84375 50.582031 107.152344 50.792969 C 107.207031 50.792969 107.257812 50.792969 107.363281 50.84375 C 108.308594 51.054688 108.515625 51.417969 109.304688 51.839844 C 110.089844 52.257812 110.929688 51.839844 111.769531 51.679688 C 112.921875 51.472656 114.128906 51.679688 115.230469 51.417969 C 116.015625 51.261719 116.644531 50.949219 117.273438 50.476562 C 118.164062 49.847656 118.792969 49.429688 119.894531 49.324219 C 120.523438 49.273438 121.152344 49.429688 121.730469 49.378906 C 122.359375 49.324219 122.988281 49.167969 123.617188 48.960938 C 126.972656 47.859375 130.066406 45.347656 133.738281 45.976562 C 134.210938 46.65625 133.476562 47.546875 133.160156 48.121094 Z M 133.160156 48.121094 " fill-opacity="1" fill-rule="nonzero"/></g><g clip-path="url(#4e06d85407)"><path fill="#3a4768" d="M 239.757812 11.066406 L 239.757812 59.480469 C 239.703125 59.742188 239.597656 60.003906 239.546875 60.316406 C 239.128906 61.835938 239.179688 64.03125 237.34375 64.136719 C 235.351562 64.242188 233.253906 64.136719 231.261719 64.085938 C 225.863281 64.03125 220.460938 65.027344 215.113281 65.707031 C 210.445312 66.285156 205.78125 66.859375 201.113281 67.382812 C 195.871094 67.957031 190.730469 68.011719 185.4375 68.117188 C 181.03125 68.21875 176.679688 68.324219 172.273438 68.375 C 167.503906 68.429688 162.996094 68.796875 158.277344 69.160156 C 152.195312 69.632812 146.058594 69.632812 139.925781 70.050781 C 135.152344 70.367188 130.382812 70.679688 125.664062 71.046875 C 123.984375 71.152344 122.253906 71.253906 120.578125 71.515625 C 119.421875 71.726562 118.269531 72.039062 117.117188 72.25 C 115.125 72.511719 112.867188 72.773438 110.824219 72.722656 C 109.09375 72.667969 107.46875 73.246094 105.789062 73.035156 C 103.851562 72.773438 102.277344 72.460938 100.496094 72.5625 C 100.023438 72.5625 99.5 72.617188 98.972656 72.722656 C 97.875 72.929688 96.300781 73.507812 95.355469 72.878906 C 95.09375 72.722656 94.308594 71.097656 94.253906 70.835938 C 90.953125 72.09375 81.042969 68.0625 80.9375 63.824219 C 82.824219 63.71875 84.921875 64.03125 86.808594 63.769531 C 87.703125 63.667969 88.488281 63.40625 89.222656 63.089844 C 90.953125 62.359375 92.367188 61.207031 94.359375 60.632812 C 96.824219 59.898438 99.550781 59.6875 101.964844 58.851562 C 102.121094 58.800781 102.332031 58.746094 102.488281 58.640625 C 104.007812 58.015625 105.320312 56.914062 106.890625 56.445312 C 108.414062 55.972656 110.089844 56.96875 111.714844 56.285156 C 113.8125 55.398438 114.179688 54.140625 116.59375 53.617188 C 120 52.886719 121.992188 50.894531 123.984375 48.855469 C 125.347656 47.441406 126.710938 45.976562 128.546875 44.773438 C 132.058594 42.46875 137.566406 44.300781 141.339844 44.09375 C 143.175781 43.988281 144.800781 43.410156 146.425781 42.886719 C 147.683594 42.46875 148.996094 42.050781 150.464844 41.945312 C 153.242188 41.789062 155.601562 41.683594 158.277344 40.535156 C 158.277344 40.535156 158.277344 40.535156 158.328125 40.535156 C 161.003906 39.382812 161.839844 36.921875 163.730469 34.933594 C 166.246094 32.316406 169.757812 31.425781 172.589844 29.230469 C 174.425781 27.816406 175.789062 25.984375 177.675781 24.675781 C 178.621094 24.046875 179.5625 23.523438 180.558594 23.105469 C 183.078125 22.007812 185.699219 21.222656 188.164062 20.015625 C 190.835938 18.65625 190.257812 17.871094 191.832031 15.515625 C 194.140625 12.167969 197.441406 9.496094 199.855469 6.199219 C 201.796875 3.582031 202.425781 0.601562 206.148438 0.601562 C 210.027344 0.601562 211.285156 4.683594 214.695312 6.042969 C 218.730469 7.664062 223.867188 6.09375 228.011719 7.875 C 230.265625 8.871094 232.625 11.277344 234.773438 11.800781 C 235.824219 12.0625 237.710938 11.695312 239.757812 11.066406 Z M 239.757812 11.066406 " fill-opacity="1" fill-rule="nonzero"/></g><g clip-path="url(#81d672632e)"><path fill="#232d47" d="M 239.757812 15.882812 L 239.757812 77.796875 L 14.714844 77.796875 C 15.398438 77.429688 16.132812 76.960938 16.863281 76.4375 C 22.316406 72.667969 27.769531 73.191406 34.0625 72.355469 C 38.78125 71.726562 42.871094 69.371094 47.695312 68.796875 C 52.464844 68.273438 57.550781 70.46875 61.746094 67.957031 C 63.636719 66.859375 64.160156 64.765625 65.785156 63.351562 C 68.773438 60.734375 72.445312 60.109375 76.269531 60.054688 C 81.09375 60.054688 84.710938 61.417969 89.011719 63.039062 C 89.117188 63.089844 89.273438 63.144531 89.378906 63.195312 C 93.46875 64.765625 98.398438 65.550781 102.277344 63.824219 C 104.742188 62.722656 107.257812 60.996094 109.828125 59.636719 C 111.925781 58.539062 114.074219 57.648438 116.328125 57.4375 C 118.636719 57.230469 119.632812 57.699219 122.097656 57.070312 C 123.878906 56.601562 126.132812 54.664062 127.289062 57.332031 C 128.023438 56.808594 128.757812 56.496094 129.492188 56.285156 C 131.429688 55.710938 133.371094 55.816406 134.996094 54.664062 C 136.515625 53.566406 137.09375 51.15625 138.5625 49.953125 C 139.765625 48.960938 141.128906 49.167969 142.492188 48.175781 C 144.484375 46.710938 145.324219 44.667969 146.164062 42.886719 C 147.371094 40.273438 148.574219 38.179688 153.03125 39.121094 C 154.761719 39.488281 156.179688 40.273438 158.015625 40.535156 C 158.539062 40.636719 159.0625 40.636719 159.691406 40.636719 C 162.3125 40.535156 164.988281 39.226562 167.976562 39.066406 C 170.914062 38.910156 173.324219 40.273438 175.839844 38.125 C 180.402344 34.199219 181.03125 31.21875 187.269531 29.648438 C 190.101562 28.96875 192.933594 28.128906 195.765625 27.5 C 199.171875 26.769531 202.632812 26.296875 206.25 26.664062 C 212.859375 27.292969 215.425781 26.925781 220.511719 22.269531 C 225.546875 17.660156 226.386719 17.765625 232.625 17.820312 C 232.992188 17.820312 233.359375 17.765625 233.777344 17.714844 C 235.5625 17.398438 237.660156 16.667969 239.757812 15.882812 Z M 239.757812 15.882812 " fill-opacity="1" fill-rule="nonzero"/></g><g clip-path="url(#263ecd5377)"><path fill="#232d47" d="M -31.996094 79 C -29.480469 76.402344 -25.789062 77.332031 -22.917969 75.507812 C -20.558594 74.007812 -19.09375 71.667969 -17.179688 69.6875 C -15.824219 68.289062 -13.691406 67.808594 -12.125 66.648438 C -10.730469 65.613281 -8.722656 63.953125 -6.90625 63.734375 C -5.476562 63.5625 -3.367188 64.890625 -2.253906 65.777344 C -1.640625 66.265625 -1.277344 67.191406 -0.359375 67.097656 C 3.609375 66.691406 7.300781 62.921875 11.207031 64.132812 C 12.824219 64.636719 13.984375 66.378906 15.324219 67.304688 C 16.433594 68.070312 17.890625 68.261719 18.9375 69.09375 C 20.703125 70.492188 21.734375 72.136719 24.007812 72.898438 C 26.078125 73.585938 28.363281 73.242188 30.472656 73.78125 C 32.386719 74.273438 33.746094 75.855469 35.714844 76.304688 C 38.949219 77.046875 42.511719 76.507812 45.730469 77.183594 C 47.113281 77.472656 47.9375 78.644531 48.996094 79.417969 Z M -31.996094 79 " fill-opacity="1" fill-rule="evenodd"/></g><g clip-path="url(#db850a3bba)"><path fill="#4a6185" d="M 31.363281 55.617188 C 31.359375 54.554688 32.664062 52.789062 33.445312 52.152344 C 34.574219 51.226562 35.996094 51.917969 37.074219 51.378906 C 37.507812 51.160156 37.828125 50.550781 38.222656 50.25 C 40.246094 48.703125 43.230469 46.3125 45.933594 46.664062 C 48.386719 46.984375 49.433594 50.789062 52.058594 50.519531 C 55.148438 50.199219 57.105469 46.644531 60.015625 45.976562 C 61.234375 45.699219 62.480469 46.535156 63.675781 46.1875 C 65.953125 45.53125 68.683594 43.109375 71.132812 43.53125 C 72.195312 43.714844 73.644531 45.761719 75.082031 46.175781 C 76.636719 46.625 78.3125 45.589844 79.863281 46.113281 C 81.273438 46.589844 82.109375 48.375 83.269531 49.261719 C 84.285156 50.039062 85.695312 50.304688 86.835938 50.832031 C 89.050781 51.851562 90.664062 53.90625 92.023438 55.863281 Z M 31.363281 55.617188 " fill-opacity="1" fill-rule="evenodd"/></g></svg>