<svg xmlns="http://www.w3.org/2000/svg" xmlns:xlink="http://www.w3.org/1999/xlink" width="98" zoomAndPan="magnify" viewBox="0 0 73.5 75.749998" height="101" preserveAspectRatio="xMidYMid meet" version="1.0"><defs><clipPath id="1559a60343"><path d="M 0.367188 12 L 73.003906 12 L 73.003906 43 L 0.367188 43 Z M 0.367188 12 " clip-rule="nonzero"/></clipPath><clipPath id="59a6e14c0d"><path d="M 46 66 L 65 66 L 65 75.371094 L 46 75.371094 Z M 46 66 " clip-rule="nonzero"/></clipPath><clipPath id="905b53a5ce"><path d="M 8 66 L 28 66 L 28 75.371094 L 8 75.371094 Z M 8 66 " clip-rule="nonzero"/></clipPath><clipPath id="b6d152d7b3"><path d="M 23 0.707031 L 45 0.707031 L 45 14 L 23 14 Z M 23 0.707031 " clip-rule="nonzero"/></clipPath><clipPath id="4975a54159"><path d="M 0.367188 12 L 73.003906 12 L 73.003906 43 L 0.367188 43 Z M 0.367188 12 " clip-rule="nonzero"/></clipPath><clipPath id="2907578354"><path d="M 46 66 L 65 66 L 65 75.371094 L 46 75.371094 Z M 46 66 " clip-rule="nonzero"/></clipPath><clipPath id="233be6a650"><path d="M 8 66 L 28 66 L 28 75.371094 L 8 75.371094 Z M 8 66 " clip-rule="nonzero"/></clipPath><clipPath id="b1363c1885"><path d="M 23 0.707031 L 45 0.707031 L 45 14 L 23 14 Z M 23 0.707031 " clip-rule="nonzero"/></clipPath></defs><g clip-path="url(#1559a60343)"><path fill="#3a4768" d="M 70.699219 42.925781 L 63.679688 42.925781 L 63.679688 40.515625 L 70.699219 40.515625 L 70.667969 14.769531 L 2.820312 14.800781 L 2.851562 40.550781 L 7.5 40.515625 L 7.5 42.925781 L 2.820312 42.925781 C 2.1875 42.925781 1.589844 42.679688 1.140625 42.230469 C 0.691406 41.78125 0.445312 41.183594 0.445312 40.550781 L 0.445312 14.769531 C 0.445312 14.132812 0.691406 13.535156 1.140625 13.085938 C 1.589844 12.636719 2.183594 12.390625 2.820312 12.390625 L 70.699219 12.390625 C 71.335938 12.390625 71.929688 12.636719 72.378906 13.085938 C 72.828125 13.535156 73.074219 14.132812 73.074219 14.769531 L 73.074219 40.550781 C 73.074219 41.183594 72.828125 41.78125 72.378906 42.230469 C 71.929688 42.679688 71.332031 42.925781 70.699219 42.925781 Z M 70.699219 42.925781 " fill-opacity="1" fill-rule="nonzero"/></g><path fill="#3a4768" d="M 26.226562 40.515625 L 47.292969 40.515625 L 47.292969 42.925781 L 26.226562 42.925781 Z M 26.226562 40.515625 " fill-opacity="1" fill-rule="nonzero"/><path fill="#3a4768" d="M 48.496094 52.269531 L 46.089844 52.269531 L 46.089844 34.691406 C 46.089844 33.742188 46.457031 32.851562 47.125 32.179688 C 47.800781 31.507812 48.6875 31.140625 49.632812 31.140625 C 50.578125 31.140625 51.46875 31.507812 52.140625 32.179688 C 52.808594 32.851562 53.179688 33.742188 53.179688 34.691406 L 53.179688 46.410156 L 50.769531 46.410156 L 50.769531 34.691406 C 50.769531 34.386719 50.652344 34.101562 50.4375 33.882812 C 50.007812 33.457031 49.257812 33.453125 48.828125 33.886719 C 48.613281 34.101562 48.496094 34.386719 48.496094 34.691406 Z M 48.496094 52.269531 " fill-opacity="1" fill-rule="nonzero"/><path fill="#3a4768" d="M 57.859375 46.410156 L 55.453125 46.410156 L 55.453125 42.257812 C 55.453125 41.953125 55.332031 41.667969 55.117188 41.449219 C 54.691406 41.023438 53.941406 41.019531 53.507812 41.453125 C 53.296875 41.667969 53.179688 41.953125 53.179688 42.257812 L 53.179688 46.410156 L 50.769531 46.410156 L 50.769531 42.257812 C 50.769531 41.3125 51.136719 40.421875 51.808594 39.75 C 52.480469 39.078125 53.371094 38.707031 54.316406 38.707031 C 55.257812 38.707031 56.148438 39.078125 56.820312 39.746094 C 57.492188 40.421875 57.859375 41.3125 57.859375 42.257812 Z M 57.859375 46.410156 " fill-opacity="1" fill-rule="nonzero"/><path fill="#3a4768" d="M 62.542969 46.410156 L 60.132812 46.410156 L 60.132812 42.257812 C 60.132812 41.953125 60.015625 41.667969 59.800781 41.449219 C 59.371094 41.023438 58.621094 41.019531 58.191406 41.453125 C 57.976562 41.667969 57.859375 41.953125 57.859375 42.257812 L 57.859375 46.410156 L 55.453125 46.410156 L 55.453125 42.257812 C 55.453125 41.3125 55.820312 40.421875 56.488281 39.75 C 57.160156 39.078125 58.050781 38.707031 58.996094 38.707031 C 59.941406 38.707031 60.832031 39.078125 61.5 39.746094 C 62.171875 40.421875 62.542969 41.3125 62.542969 42.257812 Z M 62.542969 46.410156 " fill-opacity="1" fill-rule="nonzero"/><path fill="#3a4768" d="M 63.710938 67.503906 L 61.304688 67.503906 L 61.304688 63.769531 L 64.816406 54.394531 L 64.816406 44.066406 C 64.816406 43.761719 64.695312 43.476562 64.480469 43.257812 C 64.054688 42.832031 63.304688 42.828125 62.871094 43.261719 C 62.660156 43.476562 62.542969 43.761719 62.542969 44.066406 L 62.542969 46.410156 L 60.132812 46.410156 L 60.132812 44.066406 C 60.132812 43.117188 60.5 42.226562 61.171875 41.554688 C 61.84375 40.886719 62.734375 40.515625 63.679688 40.515625 C 64.621094 40.515625 65.511719 40.886719 66.183594 41.554688 C 66.855469 42.226562 67.222656 43.121094 67.222656 44.066406 L 67.222656 54.832031 L 63.710938 64.207031 Z M 63.710938 67.503906 " fill-opacity="1" fill-rule="nonzero"/><path fill="#3a4768" d="M 49.667969 67.503906 L 47.257812 67.503906 L 47.257812 64.472656 C 45.933594 63.058594 41.40625 57.914062 41.40625 53.464844 L 41.40625 48.753906 C 41.40625 47.804688 41.777344 46.914062 42.445312 46.242188 C 43.117188 45.570312 44.007812 45.203125 44.953125 45.203125 C 45.898438 45.203125 46.789062 45.570312 47.457031 46.242188 C 48.128906 46.914062 48.496094 47.804688 48.496094 48.753906 L 46.089844 48.753906 C 46.089844 48.449219 45.96875 48.164062 45.753906 47.945312 C 45.328125 47.519531 44.578125 47.515625 44.148438 47.949219 C 43.933594 48.164062 43.816406 48.449219 43.816406 48.753906 L 43.816406 53.464844 C 43.816406 56.871094 47.785156 61.601562 49.316406 63.136719 L 49.667969 63.488281 Z M 49.667969 67.503906 " fill-opacity="1" fill-rule="nonzero"/><g clip-path="url(#59a6e14c0d)"><path fill="#3a4768" d="M 64.882812 75.707031 L 62.472656 75.707031 L 62.472656 68.675781 L 48.464844 68.707031 L 48.496094 75.707031 L 46.089844 75.707031 L 46.089844 68.675781 C 46.089844 68.039062 46.335938 67.445312 46.78125 66.996094 C 47.234375 66.542969 47.832031 66.296875 48.464844 66.296875 L 62.507812 66.296875 C 63.140625 66.296875 63.734375 66.542969 64.183594 66.992188 C 64.632812 67.441406 64.882812 68.039062 64.882812 68.675781 Z M 64.882812 75.707031 " fill-opacity="1" fill-rule="nonzero"/></g><path fill="#3a4768" d="M 27.429688 52.269531 L 25.023438 52.269531 L 25.023438 37.035156 C 25.023438 36.730469 24.90625 36.441406 24.6875 36.226562 C 24.261719 35.800781 23.511719 35.796875 23.082031 36.230469 C 22.867188 36.441406 22.75 36.730469 22.75 37.035156 L 22.75 46.410156 L 20.339844 46.410156 L 20.339844 37.035156 C 20.339844 36.085938 20.710938 35.195312 21.378906 34.523438 C 22.050781 33.851562 22.941406 33.484375 23.886719 33.484375 C 24.832031 33.484375 25.722656 33.851562 26.390625 34.523438 C 27.0625 35.195312 27.429688 36.085938 27.429688 37.035156 Z M 27.429688 52.269531 " fill-opacity="1" fill-rule="nonzero"/><path fill="#3a4768" d="M 22.75 46.410156 L 20.339844 46.410156 L 20.339844 34.691406 C 20.339844 34.386719 20.222656 34.097656 20.007812 33.882812 C 19.578125 33.457031 18.828125 33.453125 18.398438 33.886719 C 18.1875 34.097656 18.066406 34.386719 18.066406 34.691406 L 18.066406 46.410156 L 15.660156 46.410156 L 15.660156 34.691406 C 15.660156 33.742188 16.027344 32.851562 16.699219 32.179688 C 17.367188 31.507812 18.257812 31.140625 19.203125 31.140625 C 20.148438 31.140625 21.039062 31.507812 21.710938 32.179688 C 22.378906 32.851562 22.75 33.742188 22.75 34.691406 Z M 22.75 46.410156 " fill-opacity="1" fill-rule="nonzero"/><path fill="#3a4768" d="M 18.066406 46.410156 L 15.660156 46.410156 L 15.660156 37.035156 C 15.660156 36.730469 15.542969 36.445312 15.328125 36.226562 C 14.898438 35.800781 14.148438 35.796875 13.71875 36.230469 C 13.503906 36.445312 13.386719 36.730469 13.386719 37.035156 L 13.386719 46.410156 L 10.980469 46.410156 L 10.980469 37.035156 C 10.980469 36.085938 11.347656 35.195312 12.015625 34.523438 C 12.6875 33.851562 13.578125 33.484375 14.523438 33.484375 C 15.46875 33.484375 16.359375 33.851562 17.027344 34.523438 C 17.699219 35.195312 18.066406 36.085938 18.066406 37.035156 Z M 18.066406 46.410156 " fill-opacity="1" fill-rule="nonzero"/><path fill="#3a4768" d="M 12.214844 67.503906 L 9.808594 67.503906 L 9.808594 64.203125 L 6.296875 54.828125 L 6.296875 39.378906 C 6.296875 38.429688 6.664062 37.539062 7.335938 36.867188 C 8.003906 36.195312 8.894531 35.828125 9.839844 35.828125 C 10.789062 35.828125 11.675781 36.195312 12.347656 36.867188 C 13.019531 37.539062 13.386719 38.429688 13.386719 39.378906 L 13.386719 46.410156 L 10.976562 46.410156 L 10.976562 39.378906 C 10.976562 39.074219 10.859375 38.789062 10.644531 38.570312 C 10.214844 38.144531 9.464844 38.144531 9.035156 38.574219 C 8.824219 38.789062 8.703125 39.074219 8.703125 39.378906 L 8.703125 54.394531 L 12.214844 63.769531 Z M 12.214844 67.503906 " fill-opacity="1" fill-rule="nonzero"/><path fill="#3a4768" d="M 26.261719 67.503906 L 23.851562 67.503906 L 23.851562 63.488281 L 24.203125 63.136719 C 25.734375 61.601562 29.703125 56.871094 29.703125 53.464844 L 29.703125 48.753906 C 29.703125 48.449219 29.585938 48.164062 29.371094 47.945312 C 28.941406 47.519531 28.195312 47.515625 27.761719 47.949219 C 27.550781 48.164062 27.429688 48.449219 27.429688 48.753906 L 25.023438 48.753906 C 25.023438 47.808594 25.390625 46.914062 26.058594 46.246094 C 26.730469 45.574219 27.621094 45.203125 28.566406 45.203125 C 29.511719 45.203125 30.402344 45.574219 31.074219 46.242188 C 31.742188 46.917969 32.113281 47.808594 32.113281 48.753906 L 32.113281 53.464844 C 32.113281 57.914062 27.585938 63.0625 26.261719 64.472656 Z M 26.261719 67.503906 " fill-opacity="1" fill-rule="nonzero"/><g clip-path="url(#905b53a5ce)"><path fill="#3a4768" d="M 27.429688 75.707031 L 25.023438 75.707031 L 25.023438 68.675781 L 11.011719 68.707031 L 11.046875 75.707031 L 8.636719 75.707031 L 8.636719 68.675781 C 8.636719 68.039062 8.882812 67.445312 9.332031 66.996094 C 9.785156 66.542969 10.378906 66.296875 11.011719 66.296875 L 25.054688 66.296875 C 25.6875 66.296875 26.285156 66.542969 26.734375 66.992188 C 27.183594 67.445312 27.429688 68.039062 27.429688 68.675781 Z M 27.429688 75.707031 " fill-opacity="1" fill-rule="nonzero"/></g><g clip-path="url(#b6d152d7b3)"><path fill="#3a4768" d="M 37.964844 13.597656 L 35.554688 13.597656 L 35.554688 11.253906 C 35.554688 10.949219 35.4375 10.660156 35.222656 10.449219 C 35.007812 10.230469 34.722656 10.113281 34.417969 10.113281 L 27.398438 10.113281 C 26.449219 10.113281 25.558594 9.746094 24.890625 9.074219 C 24.222656 8.402344 23.851562 7.511719 23.851562 6.566406 C 23.851562 5.613281 24.222656 4.722656 24.890625 4.054688 C 25.558594 3.382812 26.449219 3.015625 27.398438 3.015625 L 41.441406 3.015625 C 41.746094 3.015625 42.03125 2.898438 42.246094 2.679688 C 42.460938 2.464844 42.578125 2.179688 42.578125 1.875 L 42.578125 0.707031 L 44.984375 0.707031 L 44.984375 1.878906 C 44.984375 2.824219 44.617188 3.714844 43.949219 4.386719 C 43.277344 5.058594 42.386719 5.425781 41.441406 5.425781 L 27.398438 5.425781 C 27.09375 5.425781 26.808594 5.542969 26.59375 5.757812 C 26.378906 5.972656 26.261719 6.261719 26.261719 6.566406 C 26.261719 6.867188 26.378906 7.152344 26.59375 7.371094 C 26.808594 7.585938 27.09375 7.703125 27.398438 7.703125 L 34.417969 7.703125 C 35.367188 7.703125 36.257812 8.074219 36.925781 8.742188 C 37.59375 9.410156 37.964844 10.300781 37.964844 11.253906 Z M 37.964844 13.597656 " fill-opacity="1" fill-rule="nonzero"/></g><path fill="#3a4768" d="M 7.5 17.078125 L 9.839844 17.078125 L 9.839844 19.488281 L 7.5 19.488281 Z M 7.5 17.078125 " fill-opacity="1" fill-rule="nonzero"/><path fill="#3a4768" d="M 12.183594 17.078125 L 14.523438 17.078125 L 14.523438 19.488281 L 12.183594 19.488281 Z M 12.183594 17.078125 " fill-opacity="1" fill-rule="nonzero"/><path fill="#3a4768" d="M 16.863281 17.078125 L 19.203125 17.078125 L 19.203125 19.488281 L 16.863281 19.488281 Z M 16.863281 17.078125 " fill-opacity="1" fill-rule="nonzero"/><path fill="#3a4768" d="M 21.546875 17.078125 L 23.886719 17.078125 L 23.886719 19.488281 L 21.546875 19.488281 Z M 21.546875 17.078125 " fill-opacity="1" fill-rule="nonzero"/><path fill="#3a4768" d="M 26.226562 17.078125 L 28.566406 17.078125 L 28.566406 19.488281 L 26.226562 19.488281 Z M 26.226562 17.078125 " fill-opacity="1" fill-rule="nonzero"/><path fill="#3a4768" d="M 30.910156 17.078125 L 33.25 17.078125 L 33.25 19.488281 L 30.910156 19.488281 Z M 30.910156 17.078125 " fill-opacity="1" fill-rule="nonzero"/><path fill="#3a4768" d="M 35.589844 17.078125 L 37.929688 17.078125 L 37.929688 19.488281 L 35.589844 19.488281 Z M 35.589844 17.078125 " fill-opacity="1" fill-rule="nonzero"/><path fill="#3a4768" d="M 40.269531 17.078125 L 42.613281 17.078125 L 42.613281 19.488281 L 40.269531 19.488281 Z M 40.269531 17.078125 " fill-opacity="1" fill-rule="nonzero"/><path fill="#3a4768" d="M 44.953125 17.078125 L 47.292969 17.078125 L 47.292969 19.488281 L 44.953125 19.488281 Z M 44.953125 17.078125 " fill-opacity="1" fill-rule="nonzero"/><path fill="#3a4768" d="M 49.632812 17.078125 L 51.976562 17.078125 L 51.976562 19.488281 L 49.632812 19.488281 Z M 49.632812 17.078125 " fill-opacity="1" fill-rule="nonzero"/><path fill="#3a4768" d="M 54.316406 17.078125 L 56.65625 17.078125 L 56.65625 19.488281 L 54.316406 19.488281 Z M 54.316406 17.078125 " fill-opacity="1" fill-rule="nonzero"/><path fill="#3a4768" d="M 58.996094 17.078125 L 61.335938 17.078125 L 61.335938 19.488281 L 58.996094 19.488281 Z M 58.996094 17.078125 " fill-opacity="1" fill-rule="nonzero"/><path fill="#3a4768" d="M 63.679688 17.078125 L 66.019531 17.078125 L 66.019531 19.488281 L 63.679688 19.488281 Z M 63.679688 17.078125 " fill-opacity="1" fill-rule="nonzero"/><path fill="#3a4768" d="M 5.160156 21.765625 L 7.5 21.765625 L 7.5 24.175781 L 5.160156 24.175781 Z M 5.160156 21.765625 " fill-opacity="1" fill-rule="nonzero"/><path fill="#3a4768" d="M 9.839844 21.765625 L 12.183594 21.765625 L 12.183594 24.175781 L 9.839844 24.175781 Z M 9.839844 21.765625 " fill-opacity="1" fill-rule="nonzero"/><path fill="#3a4768" d="M 14.523438 21.765625 L 16.863281 21.765625 L 16.863281 24.175781 L 14.523438 24.175781 Z M 14.523438 21.765625 " fill-opacity="1" fill-rule="nonzero"/><path fill="#3a4768" d="M 19.203125 21.765625 L 21.546875 21.765625 L 21.546875 24.175781 L 19.203125 24.175781 Z M 19.203125 21.765625 " fill-opacity="1" fill-rule="nonzero"/><path fill="#3a4768" d="M 23.886719 21.765625 L 26.226562 21.765625 L 26.226562 24.175781 L 23.886719 24.175781 Z M 23.886719 21.765625 " fill-opacity="1" fill-rule="nonzero"/><path fill="#3a4768" d="M 28.566406 21.765625 L 30.910156 21.765625 L 30.910156 24.175781 L 28.566406 24.175781 Z M 28.566406 21.765625 " fill-opacity="1" fill-rule="nonzero"/><path fill="#3a4768" d="M 33.25 21.765625 L 35.589844 21.765625 L 35.589844 24.175781 L 33.25 24.175781 Z M 33.25 21.765625 " fill-opacity="1" fill-rule="nonzero"/><path fill="#3a4768" d="M 37.929688 21.765625 L 40.269531 21.765625 L 40.269531 24.175781 L 37.929688 24.175781 Z M 37.929688 21.765625 " fill-opacity="1" fill-rule="nonzero"/><path fill="#3a4768" d="M 42.613281 21.765625 L 44.953125 21.765625 L 44.953125 24.175781 L 42.613281 24.175781 Z M 42.613281 21.765625 " fill-opacity="1" fill-rule="nonzero"/><path fill="#3a4768" d="M 47.292969 21.765625 L 49.632812 21.765625 L 49.632812 24.175781 L 47.292969 24.175781 Z M 47.292969 21.765625 " fill-opacity="1" fill-rule="nonzero"/><path fill="#3a4768" d="M 51.976562 21.765625 L 54.316406 21.765625 L 54.316406 24.175781 L 51.976562 24.175781 Z M 51.976562 21.765625 " fill-opacity="1" fill-rule="nonzero"/><path fill="#3a4768" d="M 56.65625 21.765625 L 58.996094 21.765625 L 58.996094 24.175781 L 56.65625 24.175781 Z M 56.65625 21.765625 " fill-opacity="1" fill-rule="nonzero"/><path fill="#3a4768" d="M 61.335938 21.765625 L 63.679688 21.765625 L 63.679688 24.175781 L 61.335938 24.175781 Z M 61.335938 21.765625 " fill-opacity="1" fill-rule="nonzero"/><path fill="#3a4768" d="M 66.019531 21.765625 L 68.359375 21.765625 L 68.359375 24.175781 L 66.019531 24.175781 Z M 66.019531 21.765625 " fill-opacity="1" fill-rule="nonzero"/><path fill="#3a4768" d="M 7.5 26.453125 L 9.839844 26.453125 L 9.839844 28.863281 L 7.5 28.863281 Z M 7.5 26.453125 " fill-opacity="1" fill-rule="nonzero"/><path fill="#3a4768" d="M 12.183594 26.453125 L 14.523438 26.453125 L 14.523438 28.863281 L 12.183594 28.863281 Z M 12.183594 26.453125 " fill-opacity="1" fill-rule="nonzero"/><path fill="#3a4768" d="M 16.863281 26.453125 L 19.203125 26.453125 L 19.203125 28.863281 L 16.863281 28.863281 Z M 16.863281 26.453125 " fill-opacity="1" fill-rule="nonzero"/><path fill="#3a4768" d="M 21.546875 26.453125 L 23.886719 26.453125 L 23.886719 28.863281 L 21.546875 28.863281 Z M 21.546875 26.453125 " fill-opacity="1" fill-rule="nonzero"/><path fill="#3a4768" d="M 26.226562 26.453125 L 28.566406 26.453125 L 28.566406 28.863281 L 26.226562 28.863281 Z M 26.226562 26.453125 " fill-opacity="1" fill-rule="nonzero"/><path fill="#3a4768" d="M 30.910156 26.453125 L 33.25 26.453125 L 33.25 28.863281 L 30.910156 28.863281 Z M 30.910156 26.453125 " fill-opacity="1" fill-rule="nonzero"/><path fill="#3a4768" d="M 35.589844 26.453125 L 37.929688 26.453125 L 37.929688 28.863281 L 35.589844 28.863281 Z M 35.589844 26.453125 " fill-opacity="1" fill-rule="nonzero"/><path fill="#3a4768" d="M 40.269531 26.453125 L 42.613281 26.453125 L 42.613281 28.863281 L 40.269531 28.863281 Z M 40.269531 26.453125 " fill-opacity="1" fill-rule="nonzero"/><path fill="#3a4768" d="M 44.953125 26.453125 L 47.292969 26.453125 L 47.292969 28.863281 L 44.953125 28.863281 Z M 44.953125 26.453125 " fill-opacity="1" fill-rule="nonzero"/><path fill="#3a4768" d="M 49.632812 26.453125 L 51.976562 26.453125 L 51.976562 28.863281 L 49.632812 28.863281 Z M 49.632812 26.453125 " fill-opacity="1" fill-rule="nonzero"/><path fill="#3a4768" d="M 54.316406 26.453125 L 56.65625 26.453125 L 56.65625 28.863281 L 54.316406 28.863281 Z M 54.316406 26.453125 " fill-opacity="1" fill-rule="nonzero"/><path fill="#3a4768" d="M 58.996094 26.453125 L 61.335938 26.453125 L 61.335938 28.863281 L 58.996094 28.863281 Z M 58.996094 26.453125 " fill-opacity="1" fill-rule="nonzero"/><path fill="#3a4768" d="M 63.679688 26.453125 L 66.019531 26.453125 L 66.019531 28.863281 L 63.679688 28.863281 Z M 63.679688 26.453125 " fill-opacity="1" fill-rule="nonzero"/><path fill="#3a4768" d="M 5.160156 31.140625 L 7.5 31.140625 L 7.5 33.550781 L 5.160156 33.550781 Z M 5.160156 31.140625 " fill-opacity="1" fill-rule="nonzero"/><path fill="#3a4768" d="M 9.839844 31.140625 L 12.183594 31.140625 L 12.183594 33.550781 L 9.839844 33.550781 Z M 9.839844 31.140625 " fill-opacity="1" fill-rule="nonzero"/><path fill="#3a4768" d="M 28.566406 31.140625 L 30.910156 31.140625 L 30.910156 33.550781 L 28.566406 33.550781 Z M 28.566406 31.140625 " fill-opacity="1" fill-rule="nonzero"/><path fill="#3a4768" d="M 33.25 31.140625 L 35.589844 31.140625 L 35.589844 33.550781 L 33.25 33.550781 Z M 33.25 31.140625 " fill-opacity="1" fill-rule="nonzero"/><path fill="#3a4768" d="M 37.929688 31.140625 L 40.269531 31.140625 L 40.269531 33.550781 L 37.929688 33.550781 Z M 37.929688 31.140625 " fill-opacity="1" fill-rule="nonzero"/><path fill="#3a4768" d="M 42.613281 31.140625 L 44.953125 31.140625 L 44.953125 33.550781 L 42.613281 33.550781 Z M 42.613281 31.140625 " fill-opacity="1" fill-rule="nonzero"/><path fill="#3a4768" d="M 61.335938 31.140625 L 63.679688 31.140625 L 63.679688 33.550781 L 61.335938 33.550781 Z M 61.335938 31.140625 " fill-opacity="1" fill-rule="nonzero"/><path fill="#3a4768" d="M 56.65625 31.140625 L 58.996094 31.140625 L 58.996094 33.550781 L 56.65625 33.550781 Z M 56.65625 31.140625 " fill-opacity="1" fill-rule="nonzero"/><path fill="#3a4768" d="M 66.019531 31.140625 L 68.359375 31.140625 L 68.359375 33.550781 L 66.019531 33.550781 Z M 66.019531 31.140625 " fill-opacity="1" fill-rule="nonzero"/><path fill="#3a4768" d="M 30.910156 35.828125 L 42.613281 35.828125 L 42.613281 38.238281 L 30.910156 38.238281 Z M 30.910156 35.828125 " fill-opacity="1" fill-rule="nonzero"/><g clip-path="url(#4975a54159)"><path fill="#3a4768" d="M 70.699219 42.925781 L 63.679688 42.925781 L 63.679688 40.515625 L 70.699219 40.515625 L 70.667969 14.769531 L 2.820312 14.800781 L 2.851562 40.550781 L 7.5 40.515625 L 7.5 42.925781 L 2.820312 42.925781 C 2.1875 42.925781 1.589844 42.679688 1.140625 42.230469 C 0.691406 41.78125 0.445312 41.183594 0.445312 40.550781 L 0.445312 14.769531 C 0.445312 14.132812 0.691406 13.535156 1.140625 13.085938 C 1.589844 12.636719 2.183594 12.390625 2.820312 12.390625 L 70.699219 12.390625 C 71.335938 12.390625 71.929688 12.636719 72.378906 13.085938 C 72.828125 13.535156 73.074219 14.132812 73.074219 14.769531 L 73.074219 40.550781 C 73.074219 41.183594 72.828125 41.78125 72.378906 42.230469 C 71.929688 42.679688 71.332031 42.925781 70.699219 42.925781 Z M 70.699219 42.925781 " fill-opacity="1" fill-rule="nonzero"/></g><path fill="#3a4768" d="M 26.226562 40.515625 L 47.292969 40.515625 L 47.292969 42.925781 L 26.226562 42.925781 Z M 26.226562 40.515625 " fill-opacity="1" fill-rule="nonzero"/><path fill="#3a4768" d="M 48.496094 52.269531 L 46.089844 52.269531 L 46.089844 34.691406 C 46.089844 33.742188 46.457031 32.851562 47.125 32.179688 C 47.800781 31.507812 48.6875 31.140625 49.632812 31.140625 C 50.578125 31.140625 51.46875 31.507812 52.140625 32.179688 C 52.808594 32.851562 53.179688 33.742188 53.179688 34.691406 L 53.179688 46.410156 L 50.769531 46.410156 L 50.769531 34.691406 C 50.769531 34.386719 50.652344 34.101562 50.4375 33.882812 C 50.007812 33.457031 49.257812 33.453125 48.828125 33.886719 C 48.613281 34.101562 48.496094 34.386719 48.496094 34.691406 Z M 48.496094 52.269531 " fill-opacity="1" fill-rule="nonzero"/><path fill="#3a4768" d="M 57.859375 46.410156 L 55.453125 46.410156 L 55.453125 42.257812 C 55.453125 41.953125 55.332031 41.667969 55.117188 41.449219 C 54.691406 41.023438 53.941406 41.019531 53.507812 41.453125 C 53.296875 41.667969 53.179688 41.953125 53.179688 42.257812 L 53.179688 46.410156 L 50.769531 46.410156 L 50.769531 42.257812 C 50.769531 41.3125 51.136719 40.421875 51.808594 39.75 C 52.480469 39.078125 53.371094 38.707031 54.316406 38.707031 C 55.257812 38.707031 56.148438 39.078125 56.820312 39.746094 C 57.492188 40.421875 57.859375 41.3125 57.859375 42.257812 Z M 57.859375 46.410156 " fill-opacity="1" fill-rule="nonzero"/><path fill="#3a4768" d="M 62.542969 46.410156 L 60.132812 46.410156 L 60.132812 42.257812 C 60.132812 41.953125 60.015625 41.667969 59.800781 41.449219 C 59.371094 41.023438 58.621094 41.019531 58.191406 41.453125 C 57.976562 41.667969 57.859375 41.953125 57.859375 42.257812 L 57.859375 46.410156 L 55.453125 46.410156 L 55.453125 42.257812 C 55.453125 41.3125 55.820312 40.421875 56.488281 39.75 C 57.160156 39.078125 58.050781 38.707031 58.996094 38.707031 C 59.941406 38.707031 60.832031 39.078125 61.5 39.746094 C 62.171875 40.421875 62.542969 41.3125 62.542969 42.257812 Z M 62.542969 46.410156 " fill-opacity="1" fill-rule="nonzero"/><path fill="#3a4768" d="M 63.710938 67.503906 L 61.304688 67.503906 L 61.304688 63.769531 L 64.816406 54.394531 L 64.816406 44.066406 C 64.816406 43.761719 64.695312 43.476562 64.480469 43.257812 C 64.054688 42.832031 63.304688 42.828125 62.871094 43.261719 C 62.660156 43.476562 62.542969 43.761719 62.542969 44.066406 L 62.542969 46.410156 L 60.132812 46.410156 L 60.132812 44.066406 C 60.132812 43.117188 60.5 42.226562 61.171875 41.554688 C 61.84375 40.886719 62.734375 40.515625 63.679688 40.515625 C 64.621094 40.515625 65.511719 40.886719 66.183594 41.554688 C 66.855469 42.226562 67.222656 43.121094 67.222656 44.066406 L 67.222656 54.832031 L 63.710938 64.207031 Z M 63.710938 67.503906 " fill-opacity="1" fill-rule="nonzero"/><path fill="#3a4768" d="M 49.667969 67.503906 L 47.257812 67.503906 L 47.257812 64.472656 C 45.933594 63.058594 41.40625 57.914062 41.40625 53.464844 L 41.40625 48.753906 C 41.40625 47.804688 41.777344 46.914062 42.445312 46.242188 C 43.117188 45.570312 44.007812 45.203125 44.953125 45.203125 C 45.898438 45.203125 46.789062 45.570312 47.457031 46.242188 C 48.128906 46.914062 48.496094 47.804688 48.496094 48.753906 L 46.089844 48.753906 C 46.089844 48.449219 45.96875 48.164062 45.753906 47.945312 C 45.328125 47.519531 44.578125 47.515625 44.148438 47.949219 C 43.933594 48.164062 43.816406 48.449219 43.816406 48.753906 L 43.816406 53.464844 C 43.816406 56.871094 47.785156 61.601562 49.316406 63.136719 L 49.667969 63.488281 Z M 49.667969 67.503906 " fill-opacity="1" fill-rule="nonzero"/><g clip-path="url(#2907578354)"><path fill="#3a4768" d="M 64.882812 75.707031 L 62.472656 75.707031 L 62.472656 68.675781 L 48.464844 68.707031 L 48.496094 75.707031 L 46.089844 75.707031 L 46.089844 68.675781 C 46.089844 68.039062 46.335938 67.445312 46.78125 66.996094 C 47.234375 66.542969 47.832031 66.296875 48.464844 66.296875 L 62.507812 66.296875 C 63.140625 66.296875 63.734375 66.542969 64.183594 66.992188 C 64.632812 67.441406 64.882812 68.039062 64.882812 68.675781 Z M 64.882812 75.707031 " fill-opacity="1" fill-rule="nonzero"/></g><path fill="#3a4768" d="M 27.429688 52.269531 L 25.023438 52.269531 L 25.023438 37.035156 C 25.023438 36.730469 24.90625 36.441406 24.6875 36.226562 C 24.261719 35.800781 23.511719 35.796875 23.082031 36.230469 C 22.867188 36.441406 22.75 36.730469 22.75 37.035156 L 22.75 46.410156 L 20.339844 46.410156 L 20.339844 37.035156 C 20.339844 36.085938 20.710938 35.195312 21.378906 34.523438 C 22.050781 33.851562 22.941406 33.484375 23.886719 33.484375 C 24.832031 33.484375 25.722656 33.851562 26.390625 34.523438 C 27.0625 35.195312 27.429688 36.085938 27.429688 37.035156 Z M 27.429688 52.269531 " fill-opacity="1" fill-rule="nonzero"/><path fill="#3a4768" d="M 22.75 46.410156 L 20.339844 46.410156 L 20.339844 34.691406 C 20.339844 34.386719 20.222656 34.097656 20.007812 33.882812 C 19.578125 33.457031 18.828125 33.453125 18.398438 33.886719 C 18.1875 34.097656 18.066406 34.386719 18.066406 34.691406 L 18.066406 46.410156 L 15.660156 46.410156 L 15.660156 34.691406 C 15.660156 33.742188 16.027344 32.851562 16.699219 32.179688 C 17.367188 31.507812 18.257812 31.140625 19.203125 31.140625 C 20.148438 31.140625 21.039062 31.507812 21.710938 32.179688 C 22.378906 32.851562 22.75 33.742188 22.75 34.691406 Z M 22.75 46.410156 " fill-opacity="1" fill-rule="nonzero"/><path fill="#3a4768" d="M 18.066406 46.410156 L 15.660156 46.410156 L 15.660156 37.035156 C 15.660156 36.730469 15.542969 36.445312 15.328125 36.226562 C 14.898438 35.800781 14.148438 35.796875 13.71875 36.230469 C 13.503906 36.445312 13.386719 36.730469 13.386719 37.035156 L 13.386719 46.410156 L 10.980469 46.410156 L 10.980469 37.035156 C 10.980469 36.085938 11.347656 35.195312 12.015625 34.523438 C 12.6875 33.851562 13.578125 33.484375 14.523438 33.484375 C 15.46875 33.484375 16.359375 33.851562 17.027344 34.523438 C 17.699219 35.195312 18.066406 36.085938 18.066406 37.035156 Z M 18.066406 46.410156 " fill-opacity="1" fill-rule="nonzero"/><path fill="#3a4768" d="M 12.214844 67.503906 L 9.808594 67.503906 L 9.808594 64.203125 L 6.296875 54.828125 L 6.296875 39.378906 C 6.296875 38.429688 6.664062 37.539062 7.335938 36.867188 C 8.003906 36.195312 8.894531 35.828125 9.839844 35.828125 C 10.789062 35.828125 11.675781 36.195312 12.347656 36.867188 C 13.019531 37.539062 13.386719 38.429688 13.386719 39.378906 L 13.386719 46.410156 L 10.976562 46.410156 L 10.976562 39.378906 C 10.976562 39.074219 10.859375 38.789062 10.644531 38.570312 C 10.214844 38.144531 9.464844 38.144531 9.035156 38.574219 C 8.824219 38.789062 8.703125 39.074219 8.703125 39.378906 L 8.703125 54.394531 L 12.214844 63.769531 Z M 12.214844 67.503906 " fill-opacity="1" fill-rule="nonzero"/><path fill="#3a4768" d="M 26.261719 67.503906 L 23.851562 67.503906 L 23.851562 63.488281 L 24.203125 63.136719 C 25.734375 61.601562 29.703125 56.871094 29.703125 53.464844 L 29.703125 48.753906 C 29.703125 48.449219 29.585938 48.164062 29.371094 47.945312 C 28.941406 47.519531 28.195312 47.515625 27.761719 47.949219 C 27.550781 48.164062 27.429688 48.449219 27.429688 48.753906 L 25.023438 48.753906 C 25.023438 47.808594 25.390625 46.914062 26.058594 46.246094 C 26.730469 45.574219 27.621094 45.203125 28.566406 45.203125 C 29.511719 45.203125 30.402344 45.574219 31.074219 46.242188 C 31.742188 46.917969 32.113281 47.808594 32.113281 48.753906 L 32.113281 53.464844 C 32.113281 57.914062 27.585938 63.0625 26.261719 64.472656 Z M 26.261719 67.503906 " fill-opacity="1" fill-rule="nonzero"/><g clip-path="url(#233be6a650)"><path fill="#3a4768" d="M 27.429688 75.707031 L 25.023438 75.707031 L 25.023438 68.675781 L 11.011719 68.707031 L 11.046875 75.707031 L 8.636719 75.707031 L 8.636719 68.675781 C 8.636719 68.039062 8.882812 67.445312 9.332031 66.996094 C 9.785156 66.542969 10.378906 66.296875 11.011719 66.296875 L 25.054688 66.296875 C 25.6875 66.296875 26.285156 66.542969 26.734375 66.992188 C 27.183594 67.445312 27.429688 68.039062 27.429688 68.675781 Z M 27.429688 75.707031 " fill-opacity="1" fill-rule="nonzero"/></g><g clip-path="url(#b1363c1885)"><path fill="#3a4768" d="M 37.964844 13.597656 L 35.554688 13.597656 L 35.554688 11.253906 C 35.554688 10.949219 35.4375 10.660156 35.222656 10.449219 C 35.007812 10.230469 34.722656 10.113281 34.417969 10.113281 L 27.398438 10.113281 C 26.449219 10.113281 25.558594 9.746094 24.890625 9.074219 C 24.222656 8.402344 23.851562 7.511719 23.851562 6.566406 C 23.851562 5.613281 24.222656 4.722656 24.890625 4.054688 C 25.558594 3.382812 26.449219 3.015625 27.398438 3.015625 L 41.441406 3.015625 C 41.746094 3.015625 42.03125 2.898438 42.246094 2.679688 C 42.460938 2.464844 42.578125 2.179688 42.578125 1.875 L 42.578125 0.707031 L 44.984375 0.707031 L 44.984375 1.878906 C 44.984375 2.824219 44.617188 3.714844 43.949219 4.386719 C 43.277344 5.058594 42.386719 5.425781 41.441406 5.425781 L 27.398438 5.425781 C 27.09375 5.425781 26.808594 5.542969 26.59375 5.757812 C 26.378906 5.972656 26.261719 6.261719 26.261719 6.566406 C 26.261719 6.867188 26.378906 7.152344 26.59375 7.371094 C 26.808594 7.585938 27.09375 7.703125 27.398438 7.703125 L 34.417969 7.703125 C 35.367188 7.703125 36.257812 8.074219 36.925781 8.742188 C 37.59375 9.410156 37.964844 10.300781 37.964844 11.253906 Z M 37.964844 13.597656 " fill-opacity="1" fill-rule="nonzero"/></g><path fill="#3a4768" d="M 7.5 17.078125 L 9.839844 17.078125 L 9.839844 19.488281 L 7.5 19.488281 Z M 7.5 17.078125 " fill-opacity="1" fill-rule="nonzero"/><path fill="#3a4768" d="M 12.183594 17.078125 L 14.523438 17.078125 L 14.523438 19.488281 L 12.183594 19.488281 Z M 12.183594 17.078125 " fill-opacity="1" fill-rule="nonzero"/><path fill="#3a4768" d="M 16.863281 17.078125 L 19.203125 17.078125 L 19.203125 19.488281 L 16.863281 19.488281 Z M 16.863281 17.078125 " fill-opacity="1" fill-rule="nonzero"/><path fill="#3a4768" d="M 21.546875 17.078125 L 23.886719 17.078125 L 23.886719 19.488281 L 21.546875 19.488281 Z M 21.546875 17.078125 " fill-opacity="1" fill-rule="nonzero"/><path fill="#3a4768" d="M 26.226562 17.078125 L 28.566406 17.078125 L 28.566406 19.488281 L 26.226562 19.488281 Z M 26.226562 17.078125 " fill-opacity="1" fill-rule="nonzero"/><path fill="#3a4768" d="M 30.910156 17.078125 L 33.25 17.078125 L 33.25 19.488281 L 30.910156 19.488281 Z M 30.910156 17.078125 " fill-opacity="1" fill-rule="nonzero"/><path fill="#3a4768" d="M 35.589844 17.078125 L 37.929688 17.078125 L 37.929688 19.488281 L 35.589844 19.488281 Z M 35.589844 17.078125 " fill-opacity="1" fill-rule="nonzero"/><path fill="#3a4768" d="M 40.269531 17.078125 L 42.613281 17.078125 L 42.613281 19.488281 L 40.269531 19.488281 Z M 40.269531 17.078125 " fill-opacity="1" fill-rule="nonzero"/><path fill="#3a4768" d="M 44.953125 17.078125 L 47.292969 17.078125 L 47.292969 19.488281 L 44.953125 19.488281 Z M 44.953125 17.078125 " fill-opacity="1" fill-rule="nonzero"/><path fill="#3a4768" d="M 49.632812 17.078125 L 51.976562 17.078125 L 51.976562 19.488281 L 49.632812 19.488281 Z M 49.632812 17.078125 " fill-opacity="1" fill-rule="nonzero"/><path fill="#3a4768" d="M 54.316406 17.078125 L 56.65625 17.078125 L 56.65625 19.488281 L 54.316406 19.488281 Z M 54.316406 17.078125 " fill-opacity="1" fill-rule="nonzero"/><path fill="#3a4768" d="M 58.996094 17.078125 L 61.335938 17.078125 L 61.335938 19.488281 L 58.996094 19.488281 Z M 58.996094 17.078125 " fill-opacity="1" fill-rule="nonzero"/><path fill="#3a4768" d="M 63.679688 17.078125 L 66.019531 17.078125 L 66.019531 19.488281 L 63.679688 19.488281 Z M 63.679688 17.078125 " fill-opacity="1" fill-rule="nonzero"/><path fill="#3a4768" d="M 5.160156 21.765625 L 7.5 21.765625 L 7.5 24.175781 L 5.160156 24.175781 Z M 5.160156 21.765625 " fill-opacity="1" fill-rule="nonzero"/><path fill="#3a4768" d="M 9.839844 21.765625 L 12.183594 21.765625 L 12.183594 24.175781 L 9.839844 24.175781 Z M 9.839844 21.765625 " fill-opacity="1" fill-rule="nonzero"/><path fill="#3a4768" d="M 14.523438 21.765625 L 16.863281 21.765625 L 16.863281 24.175781 L 14.523438 24.175781 Z M 14.523438 21.765625 " fill-opacity="1" fill-rule="nonzero"/><path fill="#3a4768" d="M 19.203125 21.765625 L 21.546875 21.765625 L 21.546875 24.175781 L 19.203125 24.175781 Z M 19.203125 21.765625 " fill-opacity="1" fill-rule="nonzero"/><path fill="#3a4768" d="M 23.886719 21.765625 L 26.226562 21.765625 L 26.226562 24.175781 L 23.886719 24.175781 Z M 23.886719 21.765625 " fill-opacity="1" fill-rule="nonzero"/><path fill="#3a4768" d="M 28.566406 21.765625 L 30.910156 21.765625 L 30.910156 24.175781 L 28.566406 24.175781 Z M 28.566406 21.765625 " fill-opacity="1" fill-rule="nonzero"/><path fill="#3a4768" d="M 33.25 21.765625 L 35.589844 21.765625 L 35.589844 24.175781 L 33.25 24.175781 Z M 33.25 21.765625 " fill-opacity="1" fill-rule="nonzero"/><path fill="#3a4768" d="M 37.929688 21.765625 L 40.269531 21.765625 L 40.269531 24.175781 L 37.929688 24.175781 Z M 37.929688 21.765625 " fill-opacity="1" fill-rule="nonzero"/><path fill="#3a4768" d="M 42.613281 21.765625 L 44.953125 21.765625 L 44.953125 24.175781 L 42.613281 24.175781 Z M 42.613281 21.765625 " fill-opacity="1" fill-rule="nonzero"/><path fill="#3a4768" d="M 47.292969 21.765625 L 49.632812 21.765625 L 49.632812 24.175781 L 47.292969 24.175781 Z M 47.292969 21.765625 " fill-opacity="1" fill-rule="nonzero"/><path fill="#3a4768" d="M 51.976562 21.765625 L 54.316406 21.765625 L 54.316406 24.175781 L 51.976562 24.175781 Z M 51.976562 21.765625 " fill-opacity="1" fill-rule="nonzero"/><path fill="#3a4768" d="M 56.65625 21.765625 L 58.996094 21.765625 L 58.996094 24.175781 L 56.65625 24.175781 Z M 56.65625 21.765625 " fill-opacity="1" fill-rule="nonzero"/><path fill="#3a4768" d="M 61.335938 21.765625 L 63.679688 21.765625 L 63.679688 24.175781 L 61.335938 24.175781 Z M 61.335938 21.765625 " fill-opacity="1" fill-rule="nonzero"/><path fill="#3a4768" d="M 66.019531 21.765625 L 68.359375 21.765625 L 68.359375 24.175781 L 66.019531 24.175781 Z M 66.019531 21.765625 " fill-opacity="1" fill-rule="nonzero"/><path fill="#3a4768" d="M 7.5 26.453125 L 9.839844 26.453125 L 9.839844 28.863281 L 7.5 28.863281 Z M 7.5 26.453125 " fill-opacity="1" fill-rule="nonzero"/><path fill="#3a4768" d="M 12.183594 26.453125 L 14.523438 26.453125 L 14.523438 28.863281 L 12.183594 28.863281 Z M 12.183594 26.453125 " fill-opacity="1" fill-rule="nonzero"/><path fill="#3a4768" d="M 16.863281 26.453125 L 19.203125 26.453125 L 19.203125 28.863281 L 16.863281 28.863281 Z M 16.863281 26.453125 " fill-opacity="1" fill-rule="nonzero"/><path fill="#3a4768" d="M 21.546875 26.453125 L 23.886719 26.453125 L 23.886719 28.863281 L 21.546875 28.863281 Z M 21.546875 26.453125 " fill-opacity="1" fill-rule="nonzero"/><path fill="#3a4768" d="M 26.226562 26.453125 L 28.566406 26.453125 L 28.566406 28.863281 L 26.226562 28.863281 Z M 26.226562 26.453125 " fill-opacity="1" fill-rule="nonzero"/><path fill="#3a4768" d="M 30.910156 26.453125 L 33.25 26.453125 L 33.25 28.863281 L 30.910156 28.863281 Z M 30.910156 26.453125 " fill-opacity="1" fill-rule="nonzero"/><path fill="#3a4768" d="M 35.589844 26.453125 L 37.929688 26.453125 L 37.929688 28.863281 L 35.589844 28.863281 Z M 35.589844 26.453125 " fill-opacity="1" fill-rule="nonzero"/><path fill="#3a4768" d="M 40.269531 26.453125 L 42.613281 26.453125 L 42.613281 28.863281 L 40.269531 28.863281 Z M 40.269531 26.453125 " fill-opacity="1" fill-rule="nonzero"/><path fill="#3a4768" d="M 44.953125 26.453125 L 47.292969 26.453125 L 47.292969 28.863281 L 44.953125 28.863281 Z M 44.953125 26.453125 " fill-opacity="1" fill-rule="nonzero"/><path fill="#3a4768" d="M 49.632812 26.453125 L 51.976562 26.453125 L 51.976562 28.863281 L 49.632812 28.863281 Z M 49.632812 26.453125 " fill-opacity="1" fill-rule="nonzero"/><path fill="#3a4768" d="M 54.316406 26.453125 L 56.65625 26.453125 L 56.65625 28.863281 L 54.316406 28.863281 Z M 54.316406 26.453125 " fill-opacity="1" fill-rule="nonzero"/><path fill="#3a4768" d="M 58.996094 26.453125 L 61.335938 26.453125 L 61.335938 28.863281 L 58.996094 28.863281 Z M 58.996094 26.453125 " fill-opacity="1" fill-rule="nonzero"/><path fill="#3a4768" d="M 63.679688 26.453125 L 66.019531 26.453125 L 66.019531 28.863281 L 63.679688 28.863281 Z M 63.679688 26.453125 " fill-opacity="1" fill-rule="nonzero"/><path fill="#3a4768" d="M 5.160156 31.140625 L 7.5 31.140625 L 7.5 33.550781 L 5.160156 33.550781 Z M 5.160156 31.140625 " fill-opacity="1" fill-rule="nonzero"/><path fill="#3a4768" d="M 9.839844 31.140625 L 12.183594 31.140625 L 12.183594 33.550781 L 9.839844 33.550781 Z M 9.839844 31.140625 " fill-opacity="1" fill-rule="nonzero"/><path fill="#3a4768" d="M 28.566406 31.140625 L 30.910156 31.140625 L 30.910156 33.550781 L 28.566406 33.550781 Z M 28.566406 31.140625 " fill-opacity="1" fill-rule="nonzero"/><path fill="#3a4768" d="M 33.25 31.140625 L 35.589844 31.140625 L 35.589844 33.550781 L 33.25 33.550781 Z M 33.25 31.140625 " fill-opacity="1" fill-rule="nonzero"/><path fill="#3a4768" d="M 37.929688 31.140625 L 40.269531 31.140625 L 40.269531 33.550781 L 37.929688 33.550781 Z M 37.929688 31.140625 " fill-opacity="1" fill-rule="nonzero"/><path fill="#3a4768" d="M 42.613281 31.140625 L 44.953125 31.140625 L 44.953125 33.550781 L 42.613281 33.550781 Z M 42.613281 31.140625 " fill-opacity="1" fill-rule="nonzero"/><path fill="#3a4768" d="M 61.335938 31.140625 L 63.679688 31.140625 L 63.679688 33.550781 L 61.335938 33.550781 Z M 61.335938 31.140625 " fill-opacity="1" fill-rule="nonzero"/><path fill="#3a4768" d="M 56.65625 31.140625 L 58.996094 31.140625 L 58.996094 33.550781 L 56.65625 33.550781 Z M 56.65625 31.140625 " fill-opacity="1" fill-rule="nonzero"/><path fill="#3a4768" d="M 66.019531 31.140625 L 68.359375 31.140625 L 68.359375 33.550781 L 66.019531 33.550781 Z M 66.019531 31.140625 " fill-opacity="1" fill-rule="nonzero"/><path fill="#3a4768" d="M 30.910156 35.828125 L 42.613281 35.828125 L 42.613281 38.238281 L 30.910156 38.238281 Z M 30.910156 35.828125 " fill-opacity="1" fill-rule="nonzero"/></svg>