<svg xmlns="http://www.w3.org/2000/svg" xmlns:xlink="http://www.w3.org/1999/xlink" width="101" zoomAndPan="magnify" viewBox="0 0 75.75 75.749998" height="101" preserveAspectRatio="xMidYMid meet" version="1.0"><defs><clipPath id="e1a09972f7"><path d="M 29 0.300781 L 47 0.300781 L 47 16 L 29 16 Z M 29 0.300781 " clip-rule="nonzero"/></clipPath><clipPath id="904a257afc"><path d="M 60 28 L 75.429688 28 L 75.429688 47 L 60 47 Z M 60 28 " clip-rule="nonzero"/></clipPath><clipPath id="c34e4ac28c"><path d="M 29 60 L 47 60 L 47 75.300781 L 29 75.300781 Z M 29 60 " clip-rule="nonzero"/></clipPath><clipPath id="3cc9be521d"><path d="M 0.429688 28 L 16 28 L 16 47 L 0.429688 47 Z M 0.429688 28 " clip-rule="nonzero"/></clipPath><clipPath id="bdd2809bdb"><path d="M 29 0.300781 L 47 0.300781 L 47 16 L 29 16 Z M 29 0.300781 " clip-rule="nonzero"/></clipPath><clipPath id="59e964abe5"><path d="M 60 28 L 75.429688 28 L 75.429688 47 L 60 47 Z M 60 28 " clip-rule="nonzero"/></clipPath><clipPath id="58cd1b7626"><path d="M 29 60 L 47 60 L 47 75.300781 L 29 75.300781 Z M 29 60 " clip-rule="nonzero"/></clipPath><clipPath id="8cca7133da"><path d="M 0.429688 28 L 16 28 L 16 47 L 0.429688 47 Z M 0.429688 28 " clip-rule="nonzero"/></clipPath></defs><path fill="#ffffff" d="M 37.929688 21.933594 C 31.609375 21.9375 26.46875 27.078125 26.46875 33.398438 C 26.46875 34.625 26.792969 35.761719 27.113281 36.707031 C 27.753906 38.601562 30.554688 42.089844 31.515625 43.253906 L 31.53125 46.5 L 31.53125 53.667969 L 44.332031 53.667969 L 44.332031 46.5 L 44.34375 43.253906 C 45.308594 42.089844 48.105469 38.601562 48.746094 36.707031 C 49.066406 35.761719 49.394531 34.625 49.394531 33.398438 C 49.394531 27.078125 44.253906 21.9375 37.929688 21.933594 Z M 41.871094 51.210938 L 33.988281 51.210938 L 33.988281 46.5 L 41.871094 46.5 Z M 46.417969 35.917969 C 45.976562 37.21875 43.582031 40.347656 42.175781 42.011719 L 41.890625 42.351562 L 41.882812 44.042969 L 33.980469 44.042969 L 33.972656 42.351562 L 33.683594 42.011719 C 32.277344 40.347656 29.882812 37.21875 29.445312 35.917969 C 29.1875 35.160156 28.925781 34.269531 28.925781 33.398438 C 28.925781 28.433594 32.964844 24.394531 37.929688 24.394531 C 42.894531 24.394531 46.933594 28.433594 46.933594 33.398438 C 46.933594 34.269531 46.671875 35.160156 46.417969 35.917969 Z M 46.417969 35.917969 " fill-opacity="1" fill-rule="nonzero"/><g clip-path="url(#e1a09972f7)"><path fill="#ffffff" d="M 36.699219 5.011719 L 36.699219 15.21875 L 39.160156 15.21875 L 39.160156 5.011719 L 45.0625 10.910156 L 46.800781 9.171875 L 37.929688 0.304688 L 29.0625 9.171875 L 30.800781 10.910156 Z M 36.699219 5.011719 " fill-opacity="1" fill-rule="nonzero"/></g><path fill="#ffffff" d="M 53.027344 20.964844 L 54.769531 22.703125 L 61.988281 15.484375 L 61.988281 23.832031 L 64.445312 23.832031 L 64.445312 11.285156 L 51.902344 11.285156 L 51.902344 13.746094 L 60.246094 13.746094 Z M 53.027344 20.964844 " fill-opacity="1" fill-rule="nonzero"/><g clip-path="url(#904a257afc)"><path fill="#ffffff" d="M 66.558594 28.933594 L 64.820312 30.671875 L 70.722656 36.574219 L 60.511719 36.574219 L 60.511719 39.03125 L 70.722656 39.03125 L 64.820312 44.933594 L 66.558594 46.671875 L 75.429688 37.800781 Z M 66.558594 28.933594 " fill-opacity="1" fill-rule="nonzero"/></g><path fill="#ffffff" d="M 61.988281 60.117188 L 54.765625 52.898438 L 53.027344 54.640625 L 60.246094 61.859375 L 51.902344 61.859375 L 51.902344 64.316406 L 64.445312 64.316406 L 64.445312 51.773438 L 61.988281 51.773438 Z M 61.988281 60.117188 " fill-opacity="1" fill-rule="nonzero"/><g clip-path="url(#c34e4ac28c)"><path fill="#ffffff" d="M 39.160156 70.59375 L 39.160156 60.382812 L 36.699219 60.382812 L 36.699219 70.59375 L 30.800781 64.691406 L 29.058594 66.429688 L 37.929688 75.300781 L 46.800781 66.429688 L 45.058594 64.691406 Z M 39.160156 70.59375 " fill-opacity="1" fill-rule="nonzero"/></g><path fill="#ffffff" d="M 22.832031 54.636719 L 21.09375 52.898438 L 13.875 60.117188 L 13.875 51.773438 L 11.414062 51.773438 L 11.414062 64.316406 L 23.957031 64.316406 L 23.957031 61.859375 L 15.613281 61.859375 Z M 22.832031 54.636719 " fill-opacity="1" fill-rule="nonzero"/><g clip-path="url(#3cc9be521d)"><path fill="#ffffff" d="M 15.347656 39.03125 L 15.347656 36.570312 L 5.140625 36.570312 L 11.039062 30.671875 L 9.300781 28.929688 L 0.433594 37.800781 L 9.300781 46.671875 L 11.039062 44.933594 L 5.140625 39.03125 Z M 15.347656 39.03125 " fill-opacity="1" fill-rule="nonzero"/></g><path fill="#ffffff" d="M 11.414062 23.828125 L 13.875 23.828125 L 13.875 15.484375 L 21.09375 22.703125 L 22.832031 20.964844 L 15.613281 13.746094 L 23.957031 13.746094 L 23.957031 11.285156 L 11.414062 11.285156 Z M 11.414062 23.828125 " fill-opacity="1" fill-rule="nonzero"/><path fill="#ffffff" d="M 31.617188 33.332031 L 34.84375 33.332031 L 34.84375 35.789062 L 31.617188 35.789062 Z M 31.617188 33.332031 " fill-opacity="1" fill-rule="nonzero"/><path fill="#ffffff" d="M 36.316406 33.332031 L 39.542969 33.332031 L 39.542969 35.789062 L 36.316406 35.789062 Z M 36.316406 33.332031 " fill-opacity="1" fill-rule="nonzero"/><path fill="#ffffff" d="M 41.019531 33.332031 L 44.242188 33.332031 L 44.242188 35.789062 L 41.019531 35.789062 Z M 41.019531 33.332031 " fill-opacity="1" fill-rule="nonzero"/><path fill="#ffffff" d="M 37.929688 21.933594 C 31.609375 21.9375 26.46875 27.078125 26.46875 33.398438 C 26.46875 34.625 26.792969 35.761719 27.113281 36.707031 C 27.753906 38.601562 30.554688 42.089844 31.515625 43.253906 L 31.53125 46.5 L 31.53125 53.667969 L 44.332031 53.667969 L 44.332031 46.5 L 44.34375 43.253906 C 45.308594 42.089844 48.105469 38.601562 48.746094 36.707031 C 49.066406 35.761719 49.394531 34.625 49.394531 33.398438 C 49.394531 27.078125 44.253906 21.9375 37.929688 21.933594 Z M 41.871094 51.210938 L 33.988281 51.210938 L 33.988281 46.5 L 41.871094 46.5 Z M 46.417969 35.917969 C 45.976562 37.21875 43.582031 40.347656 42.175781 42.011719 L 41.890625 42.351562 L 41.882812 44.042969 L 33.980469 44.042969 L 33.972656 42.351562 L 33.683594 42.011719 C 32.277344 40.347656 29.882812 37.21875 29.445312 35.917969 C 29.1875 35.160156 28.925781 34.269531 28.925781 33.398438 C 28.925781 28.433594 32.964844 24.394531 37.929688 24.394531 C 42.894531 24.394531 46.933594 28.433594 46.933594 33.398438 C 46.933594 34.269531 46.671875 35.160156 46.417969 35.917969 Z M 46.417969 35.917969 " fill-opacity="1" fill-rule="nonzero"/><g clip-path="url(#bdd2809bdb)"><path fill="#ffffff" d="M 36.699219 5.011719 L 36.699219 15.21875 L 39.160156 15.21875 L 39.160156 5.011719 L 45.0625 10.910156 L 46.800781 9.171875 L 37.929688 0.304688 L 29.0625 9.171875 L 30.800781 10.910156 Z M 36.699219 5.011719 " fill-opacity="1" fill-rule="nonzero"/></g><path fill="#ffffff" d="M 53.027344 20.964844 L 54.769531 22.703125 L 61.988281 15.484375 L 61.988281 23.832031 L 64.445312 23.832031 L 64.445312 11.285156 L 51.902344 11.285156 L 51.902344 13.746094 L 60.246094 13.746094 Z M 53.027344 20.964844 " fill-opacity="1" fill-rule="nonzero"/><g clip-path="url(#59e964abe5)"><path fill="#ffffff" d="M 66.558594 28.933594 L 64.820312 30.671875 L 70.722656 36.574219 L 60.511719 36.574219 L 60.511719 39.03125 L 70.722656 39.03125 L 64.820312 44.933594 L 66.558594 46.671875 L 75.429688 37.800781 Z M 66.558594 28.933594 " fill-opacity="1" fill-rule="nonzero"/></g><path fill="#ffffff" d="M 61.988281 60.117188 L 54.765625 52.898438 L 53.027344 54.640625 L 60.246094 61.859375 L 51.902344 61.859375 L 51.902344 64.316406 L 64.445312 64.316406 L 64.445312 51.773438 L 61.988281 51.773438 Z M 61.988281 60.117188 " fill-opacity="1" fill-rule="nonzero"/><g clip-path="url(#58cd1b7626)"><path fill="#ffffff" d="M 39.160156 70.59375 L 39.160156 60.382812 L 36.699219 60.382812 L 36.699219 70.59375 L 30.800781 64.691406 L 29.058594 66.429688 L 37.929688 75.300781 L 46.800781 66.429688 L 45.058594 64.691406 Z M 39.160156 70.59375 " fill-opacity="1" fill-rule="nonzero"/></g><path fill="#ffffff" d="M 22.832031 54.636719 L 21.09375 52.898438 L 13.875 60.117188 L 13.875 51.773438 L 11.414062 51.773438 L 11.414062 64.316406 L 23.957031 64.316406 L 23.957031 61.859375 L 15.613281 61.859375 Z M 22.832031 54.636719 " fill-opacity="1" fill-rule="nonzero"/><g clip-path="url(#8cca7133da)"><path fill="#ffffff" d="M 15.347656 39.03125 L 15.347656 36.570312 L 5.140625 36.570312 L 11.039062 30.671875 L 9.300781 28.929688 L 0.433594 37.800781 L 9.300781 46.671875 L 11.039062 44.933594 L 5.140625 39.03125 Z M 15.347656 39.03125 " fill-opacity="1" fill-rule="nonzero"/></g><path fill="#ffffff" d="M 11.414062 23.828125 L 13.875 23.828125 L 13.875 15.484375 L 21.09375 22.703125 L 22.832031 20.964844 L 15.613281 13.746094 L 23.957031 13.746094 L 23.957031 11.285156 L 11.414062 11.285156 Z M 11.414062 23.828125 " fill-opacity="1" fill-rule="nonzero"/><path fill="#ffffff" d="M 31.617188 33.332031 L 34.84375 33.332031 L 34.84375 35.789062 L 31.617188 35.789062 Z M 31.617188 33.332031 " fill-opacity="1" fill-rule="nonzero"/><path fill="#ffffff" d="M 36.316406 33.332031 L 39.542969 33.332031 L 39.542969 35.789062 L 36.316406 35.789062 Z M 36.316406 33.332031 " fill-opacity="1" fill-rule="nonzero"/><path fill="#ffffff" d="M 41.019531 33.332031 L 44.242188 33.332031 L 44.242188 35.789062 L 41.019531 35.789062 Z M 41.019531 33.332031 " fill-opacity="1" fill-rule="nonzero"/></svg>